<?xml version="1.0" encoding="utf-8"?>
<!-- Generator: Adobe Illustrator 19.0.1, SVG Export Plug-In . SVG Version: 6.00 Build 0)  -->
<svg version="1.1" id="圖層_1" xmlns="http://www.w3.org/2000/svg" xmlns:xlink="http://www.w3.org/1999/xlink" x="0px" y="0px"
	 viewBox="-408 285.3 25 25" style="enable-background:new -408 285.3 25 25;" xml:space="preserve">
<style type="text/css">
	.st0{fill:#5DBEBB;}
</style>
<path class="st0" d="M-395.5,285.3c-6.9,0-12.5,5.6-12.5,12.5s5.6,12.5,12.5,12.5s12.5-5.6,12.5-12.5S-388.6,285.3-395.5,285.3z
	 M-387.1,300c0,0.8-0.4,1.4-1.3,1.6c-1.5,0.3-4.6,0.4-7.2,0.4s-5.7-0.2-7.2-0.4c-0.8-0.2-1.3-0.8-1.3-1.6v-4.9
	c0-0.8,0.6-1.5,1.3-1.6c0.4-0.1,1.5-0.2,2.2-0.2c0.3,0,0.5,0.2,0.5,0.6v3.4l4.4-0.1l4.4,0.1v-3.4c0-0.4,0.2-0.6,0.5-0.6
	c0.8,0,1.8,0.1,2.2,0.2c0.7,0.1,1.3,0.8,1.3,1.6C-387.1,296.7-387.1,298.3-387.1,300L-387.1,300z"/>
</svg>
