<?xml version="1.0" encoding="utf-8"?>
<!-- Generator: Adobe Illustrator 19.0.1, SVG Export Plug-In . SVG Version: 6.00 Build 0)  -->
<svg version="1.1" id="圖層_1" xmlns="http://www.w3.org/2000/svg" xmlns:xlink="http://www.w3.org/1999/xlink" x="0px" y="0px"
	 viewBox="-275.5 408.9 24.9 25" style="enable-background:new -275.5 408.9 24.9 25;" xml:space="preserve">
<style type="text/css">
	.st0{fill:#D2D3D5;}
</style>
<g>
	<path class="st0" d="M-262.7,412.2c1.6,0,3.1,0,4.8,0c3.1,0,5.9,2,6.9,4.8c0.4,1.2,0.6,2.5,0.4,3.8c-0.2,1.9-0.7,3.7-1.8,5.3
		c-1.7,2.5-4,3.8-7,4.2c-1,0.1-2,0.1-3,0.1c-0.4,0-0.7-0.2-0.7-0.5c0-0.4,0.2-0.7,0.6-0.7c0.4,0,0.9,0,1.4,0c2.7-0.1,5.1-1,7-3.1
		c1.3-1.4,2-3.1,2.2-5c0.1-1.3,0.1-2.6-0.4-3.9c-0.8-1.9-2.3-3.1-4.2-3.7c-0.8-0.2-1.5-0.2-2.3-0.3c-2.9,0-5.9,0-8.9,0
		c-0.1,0-0.2,0-0.4,0c-0.3,0-0.5-0.3-0.5-0.6s0.2-0.5,0.4-0.6c0.1,0,0.3,0,0.4,0L-262.7,412.2L-262.7,412.2z"/>
	<path class="st0" d="M-265.7,426.4h-5.3c-0.1,0-0.2,0-0.4,0c-0.3-0.1-0.5-0.2-0.5-0.5s0.1-0.5,0.4-0.7c0.1-0.1,0.4-0.1,0.6-0.1
		c3.4,0,7,0,10.4,0c1.2,0,2.3-0.4,3.1-1.3c0.7-0.7,1.1-1.7,1.2-2.7c0.1-0.8,0-1.5-0.5-2.3c-0.6-0.7-1.3-1.1-2.3-1.1
		c-3.3,0-6.6,0-9.9,0c-0.4,0-0.7,0-1-0.1c-0.3,0-0.4-0.2-0.5-0.5c0-0.4,0.1-0.6,0.4-0.7c0.1,0,0.2,0,0.3,0h10.5
		c1.8,0,3.3,1.1,3.9,2.8c0.4,1.2,0.3,2.4-0.2,3.5c-0.9,2.2-2.9,3.6-5.3,3.6C-262.3,426.4-264,426.4-265.7,426.4L-265.7,426.4z
		 M-273.6,417.6c-0.4,0-0.8,0-1.2,0c-0.4,0-0.6-0.2-0.7-0.5c-0.1-0.3,0.1-0.6,0.5-0.7c0.2,0,0.4-0.1,0.6-0.1c0.6,0,1.1,0,1.7,0
		c0.1,0,0.4,0,0.5,0.1c0.3,0.1,0.4,0.4,0.4,0.7c0,0.3-0.2,0.5-0.5,0.5C-272.7,417.7-273.1,417.6-273.6,417.6L-273.6,417.6z
		 M-266.2,430.5c-0.4,0-0.7,0-1.2,0c-0.4,0-0.6-0.2-0.7-0.5c0-0.4,0.2-0.7,0.5-0.7c0.8-0.1,1.6-0.1,2.5,0c0.3,0,0.6,0.3,0.5,0.6l0,0
		c0,0.4-0.3,0.5-0.7,0.6L-266.2,430.5L-266.2,430.5z"/>
</g>
</svg>
