<?xml version="1.0" encoding="utf-8"?>
<!-- Generator: Adobe Illustrator 19.0.1, SVG Export Plug-In . SVG Version: 6.00 Build 0)  -->
<svg version="1.1" id="圖層_1" xmlns="http://www.w3.org/2000/svg" xmlns:xlink="http://www.w3.org/1999/xlink" x="0px" y="0px"
	 viewBox="-403 285.3 34 25" style="enable-background:new -403 285.3 34 25;" xml:space="preserve">
<style type="text/css">
	.st0{fill:#D2D3D5;}
</style>
<g>
	<path class="st0" d="M-385.5,285.3c2.2,0,4.3,0,6.5,0c4.2,0,8,2.7,9.4,6.6c0.6,1.7,0.8,3.4,0.6,5.2c-0.3,2.6-1,5-2.5,7.2
		c-2.3,3.4-5.5,5.2-9.5,5.8c-1.4,0.2-2.7,0.2-4.1,0.2c-0.6,0-0.9-0.3-0.9-0.7c0-0.5,0.3-0.9,0.8-0.9c0.6,0,1.2,0,1.9,0
		c3.7-0.1,7-1.4,9.6-4.2c1.8-1.9,2.7-4.3,3-6.9c0.2-1.8,0.2-3.6-0.5-5.3c-1.1-2.6-3.1-4.2-5.8-5c-1.1-0.3-2.1-0.3-3.2-0.4
		c-4,0-8.1,0-12.1,0c-0.2,0-0.3,0-0.5,0c-0.4,0-0.7-0.4-0.7-0.8s0.3-0.7,0.6-0.8c0.2,0,0.4,0,0.6,0L-385.5,285.3L-385.5,285.3z"/>
	<path class="st0" d="M-389.7,304.6h-7.2c-0.2,0-0.3,0-0.5,0c-0.4-0.1-0.7-0.3-0.7-0.7c0-0.4,0.2-0.7,0.6-0.9
		c0.2-0.1,0.5-0.1,0.8-0.1c4.7,0,9.5,0,14.2,0c1.7,0,3.1-0.6,4.2-1.8c1-1,1.5-2.3,1.6-3.7c0.1-1.1,0-2.1-0.7-3.1
		c-0.8-1-1.8-1.5-3.1-1.5c-4.5,0-9,0-13.5,0c-0.5,0-1,0-1.4-0.1c-0.4,0-0.6-0.3-0.7-0.7c0-0.5,0.2-0.8,0.6-0.9c0.1,0,0.3,0,0.4,0
		h14.4c2.4,0,4.5,1.5,5.3,3.8c0.5,1.6,0.4,3.3-0.3,4.8c-1.2,3-3.9,4.9-7.2,4.9C-385,304.6-387.3,304.6-389.7,304.6L-389.7,304.6z
		 M-400.4,292.6c-0.6,0-1.1,0-1.7,0c-0.5,0-0.8-0.3-0.9-0.7s0.2-0.8,0.7-0.9c0.3,0,0.5-0.1,0.8-0.1c0.8,0,1.5,0,2.3,0
		c0.2,0,0.5,0,0.7,0.1c0.4,0.1,0.6,0.5,0.6,0.9s-0.3,0.7-0.7,0.7C-399.2,292.7-399.8,292.6-400.4,292.6L-400.4,292.6z M-390.3,310.3
		c-0.5,0-1,0-1.6,0c-0.5,0-0.8-0.3-0.9-0.7c0-0.5,0.3-0.9,0.7-0.9c1.1-0.1,2.2-0.1,3.4,0c0.4,0,0.8,0.4,0.7,0.8l0,0
		c0,0.5-0.4,0.7-0.9,0.8L-390.3,310.3L-390.3,310.3z"/>
</g>
</svg>
