<?xml version="1.0" encoding="utf-8"?>
<!-- Generator: Adobe Illustrator 19.0.1, SVG Export Plug-In . SVG Version: 6.00 Build 0)  -->
<svg version="1.1" id="圖層_1" xmlns="http://www.w3.org/2000/svg" xmlns:xlink="http://www.w3.org/1999/xlink" x="0px" y="0px"
	 viewBox="2066.4 284.8 25.1 25" style="enable-background:new 2066.4 284.8 25.1 25;" xml:space="preserve">
<style type="text/css">
	.st0{fill:#FFFFFF;}
	.st1{fill:#D2D3D5;}
</style>
<g>
	<path class="st0" d="M2091.6,297.9c0-2.1-1.3-3.9-3.3-4.7c0.1-0.4,0.1-0.9,0.1-1.4c0-3.9-3.2-7.1-7.1-7.1c-2.3,0-4.4,1.1-5.7,3
		c-0.7-0.5-1.5-0.8-2.3-0.8c-2.1,0-3.8,1.7-3.8,3.8c0,0.5,0.1,0.9,0.2,1.3c-2,0.7-3.3,2.6-3.3,4.7c0,2.1,1.3,4,3.3,4.7
		c-0.1,0.4-0.1,0.9-0.1,1.4c0,3.9,3.2,7.1,7.1,7.1c2.3,0,4.4-1.1,5.7-3c0.7,0.5,1.5,0.8,2.3,0.8c2.1,0,3.8-1.7,3.8-3.8
		c0-0.5-0.1-0.9-0.2-1.3C2090.2,301.8,2091.6,300,2091.6,297.9L2091.6,297.9z"/>
	<path class="st1" d="M2076.3,295.5l5.6,2.6l5.7-5c0.1-0.4,0.1-0.8,0.1-1.3c0-3.5-2.8-6.3-6.3-6.3c-2.1,0-4,1-5.2,2.7l-0.9,4.9
		L2076.3,295.5L2076.3,295.5z"/>
	<path class="st1" d="M2070.5,301.4c-0.1,0.4-0.1,0.8-0.1,1.3c0,3.5,2.8,6.3,6.3,6.3c2.1,0,4.1-1,5.2-2.8l0.9-4.9l-1.3-2.4l-5.6-2.6
		L2070.5,301.4L2070.5,301.4z"/>
	<path class="st1" d="M2070.4,291.7l3.8,0.9l0.9-4.4c-0.5-0.4-1.2-0.6-1.8-0.6c-1.7,0-3,1.4-3,3
		C2070.2,291.1,2070.3,291.4,2070.4,291.7L2070.4,291.7z"/>
	<path class="st1" d="M2070.1,292.7c-1.7,0.6-2.9,2.2-2.9,4c0,1.8,1.1,3.3,2.7,4l5.4-4.9l-1-2.1L2070.1,292.7L2070.1,292.7z"/>
	<path class="st1" d="M2082.9,306.3c0.5,0.4,1.2,0.6,1.8,0.6c1.7,0,3-1.4,3-3c0-0.4-0.1-0.7-0.2-1l-3.8-0.9L2082.9,306.3
		L2082.9,306.3z"/>
	<path class="st1" d="M2083.7,300.9l4.2,1c1.7-0.6,2.9-2.2,2.9-4c0-1.8-1.1-3.3-2.7-4l-5.5,4.8L2083.7,300.9L2083.7,300.9z"/>
</g>
</svg>
