<?xml version="1.0" encoding="utf-8"?>
<!-- Generator: Adobe Illustrator 19.0.1, SVG Export Plug-In . SVG Version: 6.00 Build 0)  -->
<svg version="1.1" id="圖層_1" xmlns="http://www.w3.org/2000/svg" xmlns:xlink="http://www.w3.org/1999/xlink" x="0px" y="0px"
	 viewBox="2179.6 407.7 24.9 24.9" style="enable-background:new 2179.6 407.7 24.9 24.9;" xml:space="preserve">
<style type="text/css">
	.st0{fill:#D2D3D5;}
	.st1{fill:#E1E2E3;}
	.st2{fill:#BDBDBF;}
	.st3{fill:#A8A8AA;}
</style>
<g>
	<path class="st0" d="M2188.8,414.9l-1.7,0.3l-1.5,0.7l-1.3,0.8l-1.2,1.5l-0.7,0.7l-0.7,0.2l-0.2-0.4l0.3-0.4l0.1-0.6l0.2,0l0.2,0.2
		l-0.1-0.6l-0.3-0.2l0-0.2l-0.6,0.3l-0.5,0.6l-0.1,0.6l0.2,0.5l0.2,0.8l0.4,0.2l0.5,0l0.4-0.3l-0.3,1.5l0.3,1.6l-0.3,0.8l-1,1.1
		l0.2,0.7l0.5,0.8l0.9,0.7l0.5,0.1l0.6,0l-0.3,1.4l1.3,0.5l1.6,0.2l0.5-0.4l0-1l0.6-1l0-0.8l1.5,0.1l1.3-0.1l-1.3,0.8l0.2,1l0.8,1.3
		l0.8,0.4l0.7-0.3l0.3-0.5l1.4-1.1l0.3,0.2l2.2,0.1l0.4-0.4l0-0.6l-0.1-0.3l-0.1-1.7l-0.7-1.5l0.1-0.6l0.4,0.2l1.2,1.1l0.6,0
		l0.7-0.3l0.7-0.5l0.3-1.1l1.9,0.1l1.2-0.5l1-0.9l0.7-1.3l0.2-1.5l-0.1-1.8l-0.4-1.6l-0.4-0.5l-0.5-0.2l-0.9,1l-0.8,0.3l-0.7-1.2
		l-0.7-0.7l-0.4-0.2l-1.6-1.3l-1.3-0.7l-1.3-0.1l-1.5,0.2l-1.3,0.5l-0.9,0.7l-0.7,0.9l-0.7,0.2L2188.8,414.9"/>
	<path class="st1" d="M2184,418.7c-1.4,1.7-1.1,3.7-0.7,5.6c-0.2-0.5-0.4-1.1-0.6-1.6l-0.2-1.5c0-0.5,0-1,0.1-1.5l0.6-1.4l0.9-1.3
		l1.4-1.2l1.5-0.6l1.8-0.2l-1.7,1.9C2185.7,417.3,2184.9,417.6,2184,418.7"/>
	<path class="st1" d="M2190.7,413.6c-1,1-1.5,1.7-2.2,2.8c-0.4,0.8-1,1.6-1.4,2.4c-0.2,0.4-0.3,0.7-0.3,1.2l-0.7-0.8
		c0.1-0.3,0.2-0.7,0.3-1l1.1-2l2.4-2.4C2190.2,413.7,2190.4,413.7,2190.7,413.6 M2195.6,411.2c-0.8,0.3-2.1,0.4-2.2,1.3
		c-0.1,0.6,0,1,0.4,1.7c-1-1-1.2-0.8-3.1-0.5l0.8-1.1l1.4-0.9l1.8-0.4L2195.6,411.2"/>
	<path class="st2" d="M2197.8,423.5c0.3,0.2,0.3,0.3,0.2,0.4c0.2-0.1,0.4-0.2,0.6-0.2l0.4-0.5l0.3-0.8l-0.4-0.3l-1.7,0.2
		c0,0.1-0.1,0.2-0.1,0.3c0,0.2,0,0.3,0,0.5c0.1,0.1,0.1,0.2,0.2,0.3c0.1,0,0.2,0.1,0.2,0.1C2197.6,423.5,2197.7,423.5,2197.8,423.5
		 M2197.6,420.6c-0.8,0.2-0.8,0.3-1.1,1.1C2196.8,421.3,2197.1,421,2197.6,420.6 M2203.2,414.4c-0.1,0.1-0.3,0.1-0.4,0.2
		c-0.2,0.3-0.4,0.5-0.7,0.7c-0.2,0.1-0.3,0.2-0.5,0.2c-0.1,0-0.2,0-0.4,0.1c0.1,0,0.1,0,0.2,0h0.5l0.6-0.4l0.4-0.4L2203.2,414.4
		 M2189.8,416.3c-0.3,0.9-0.6,1.7-1.1,2.5c0.6-0.7,1-1.3,1.4-2.1c0.1-0.3,0.2-0.7,0.6-0.5c0,0.3,0.1,0.6,0.1,0.9
		c0.2-1.5,0.8-2.2,2.2-2.8l-1.2,0.1l-1.1,0.2l-0.6,0.8L2189.8,416.3 M2192.5,416.2c0.3,1.4,0.7,2.8,0.9,4.2c0.1,0.9,0.1,1.4-0.3,2.2
		c-0.5,0-0.8,0-1.3,0.2c-2,0.7-3.1,1.6-4.5-0.3l1.3,0.6c0.3-0.1,0.6-0.1,0.9-0.2c0.5-0.3,1.1-0.6,1.6-0.9l1.3-0.2l0.4-1.7l-0.3-2.3
		c0-0.4,0-0.7,0-1.1C2192.5,416.6,2192.5,416.4,2192.5,416.2 M2196,425.1c-0.2,1.2,0.4,1.8,0.2,2.1c-0.1,0.1-0.2,0.2-0.3,0.3
		c-0.4,0.2-0.8,0-0.9,0.1h-1.2l-0.5-0.2l0.7-0.8c0.2-0.5,0.5-1,0.7-1.5l0.4-1.5h0.2L2196,425.1"/>
	<path class="st2" d="M2194,421.7c0.1,0.5,0.3,0.7,0.5,1.2c-0.2,0.8-0.4,1.8-0.7,2.6c-0.1,0.3-0.2,0.5-0.5,0.7
		c-0.4,0.4-0.8,0.8-1.3,1.1c-0.3,0.3-0.6,0.1-1,0.1c-0.2,0.3-0.2,0.5-0.5,0.6c-0.5,0.2-0.9-0.3-1.3-0.6c0.3,0.4,0.5,0.9,0.8,1.3
		c0.2,0.2,0.4,0.4,0.6,0.5l0.5,0.1l0.6-0.4c0.1-0.2,0.2-0.4,0.3-0.6c0.2-0.2,0.5-0.4,0.7-0.5c0.3-0.2,0.6-0.5,0.9-0.7l0.6-0.8
		l0.5-0.9c0.2-0.6,0.4-1.3,0.6-1.9c0-0.2,0-0.5,0.1-0.7c-0.3-0.1-0.5-0.2-0.8-0.4C2194.4,422,2194.2,421.9,2194,421.7 M2187.6,425.4
		c0.9,0,1.8-0.1,2.7-0.4c0.2-0.3,0.5-0.6,0.7-0.9c-0.3,0.5-0.3,0.8-0.4,1.3l-0.3,0.4c-0.7,0-1.4,0-2,0.1c-0.2,0-0.4,0-0.7-0.1
		c0,0,0,0-0.1-0.1C2187.6,425.6,2187.6,425.5,2187.6,425.4 M2187.5,424.8l-0.1-0.6c-0.2,0.9-0.1,1.5-0.5,2.4
		c-0.3,0.4-0.7,0.7-1.2,0.9c0,0.2,0,0.4,0,0.5c-0.1,0.6-1.3,0.3-1.8,0.3l2.4,0.6l0.5-0.2c0.1-0.3,0.1-0.7,0.2-1l0.5-0.9l0.1-0.6
		L2187.5,424.8 M2186.2,419.6c0,0.4-0.1,0.6,0.1,1c0.3,0.5,0.6,1,0.8,1.5l0.1-1C2186.9,420.6,2186.5,420.1,2186.2,419.6 M2182.5,423
		c-0.1,0.2-0.2,0.3-0.2,0.5c0.2,0.7,0.4,1.2,0.8,1.8c-0.1,0.3-0.1,0.4-0.3,0.6c-0.4-0.1-0.7-0.1-1-0.1c0.4,0.3,0.8,0.6,1.2,0.9
		c0.2,0,0.4-0.1,0.6-0.1l0.6-0.6l-0.8-1.3C2183.1,424.1,2182.8,423.5,2182.5,423 M2203.2,414.2c0.2,1.1,0.6,2.1,0.5,3.2
		c0,1.4-0.3,3.1-1.6,3.9c-1.4,0.9-3.1,0.5-4.6,0.1l1.9,0.8c0.6,0,1.2,0.1,1.8,0.1c0.4-0.1,0.8-0.2,1.2-0.4c0.3-0.3,0.6-0.5,0.9-0.8
		l0.7-1.5l0.3-1.7c-0.1-0.6-0.1-1.1-0.2-1.7l-0.4-1.7C2203.5,414.4,2203.4,414.3,2203.2,414.2 M2182,417.4c-0.6,0.4-0.9,0.6-0.8,1.4
		l0.2,0.7l0.3,0.2l0.3,0.1l0.6-0.1c0.1-0.3,0.2-0.6,0.3-1l-0.9,0.4h-0.2c-0.1-0.1-0.2-0.2-0.2-0.3l0.3-0.4l0.1-0.8
		c0.1,0,0.1,0,0.2,0.1c0.1,0.1,0.2,0.1,0.2,0.2l0-0.4l-0.2-0.3c-0.1,0-0.1-0.1-0.2-0.1L2182,417.4 M2196.5,411.3
		c0.6,0.5,1.3,1,1.7,1.6c0.2,0.3,0.4,0.4,0,0.7c0.4-0.1,0.5-0.1,0.9-0.1c0.6,0.1,1.1,0.9,1.2,1.5c0,0.1-0.2,0.2-0.6,0.3
		c0,0-0.3,0-0.2,0c0,0.1,0.1,0.1,0.2,0.2c0,0.1,0,0.4,0.1,0.5c0.3,0,0.6,0,0.8,0.1c0.1,0.2,0.1,0.3,0.1,0.5l0.3-0.1
		c0-0.2-0.1-0.5-0.1-0.7c0.1-0.2,0.2-0.3,0.3-0.5l-0.4-0.9c-0.3-0.2-0.5-0.5-0.8-0.7l-0.1,0c-0.3-0.2-0.6-0.4-0.9-0.5l-1.4-1.2
		L2196.5,411.3 M2197.4,415.7c0,0.1-0.1,0.1-0.1,0.2c0.2,0.2,0.4,0.4,0.4,0.7c-0.3,0.1-0.5,0.3-0.8,0.4l-0.7,0.7
		c-0.3-0.2-0.4-0.3-0.5-0.6c-0.2,0-0.3,0.1-0.5,0c0.1,0,0.1,0,0.2-0.1l0.4-0.5c0.3-0.2,0.5-0.4,0.8-0.6l0.5-0.2
		C2197.2,415.8,2197.4,415.7,2197.4,415.7"/>
	<path class="st2" d="M2198.2,416.5c-0.9,0.5-1.7,0.9-2.1,1.8C2196,417.2,2197.2,416.7,2198.2,416.5 M2195.9,414.3
		c-0.6,0.4-1.1,1.3-1,2.2c-0.2-0.7-0.1-1.4,0.5-1.9c0.1-0.1,0.2-0.1,0.3-0.2C2195.7,414.3,2195.8,414.3,2195.9,414.3"/>
	<path class="st3" d="M2204.4,416.3c-0.1-0.7-0.3-1.4-0.6-1.9c0-0.1-0.1-0.1-0.1-0.2c-0.1-0.1-0.3-0.3-0.5-0.3
		c-0.2-0.1-0.4-0.1-0.6,0c0,0-0.1,0.1-0.1,0.1c-0.1,0.1-0.2,0.3-0.3,0.4c-0.1,0.2-0.2,0.3-0.3,0.4c-0.2,0.1-0.3,0.2-0.5,0.3
		c-0.1-0.2-0.2-0.4-0.3-0.5c-0.1-0.2-0.3-0.4-0.4-0.6c-0.1-0.1-0.2-0.3-0.4-0.4c-0.1-0.1-0.3-0.2-0.4-0.3c-0.4-0.3-0.8-0.6-1.2-0.9
		c-0.2-0.1-0.3-0.3-0.5-0.4c-0.9-0.7-1.7-1.1-2.6-1.1c-0.9-0.1-1.8,0.2-2.9,0.6c-0.5,0.2-0.9,0.5-1.2,0.8c-0.3,0.3-0.6,0.6-0.9,1
		c-0.2,0-0.3,0-0.5,0.1c-0.2,0.1-0.4,0.2-0.6,0.4c-0.1,0.1-0.3,0.3-0.4,0.4c-0.1,0.1-0.3,0.3-0.4,0.4c-1,0.2-1.8,0.3-2.5,0.6
		c-0.7,0.3-1.4,0.7-2,1.3c-0.3,0.2-0.5,0.5-0.7,0.8c-0.2,0.3-0.4,0.5-0.5,0.8c-0.1,0.1-0.3,0.3-0.4,0.4c-0.1,0.1-0.3,0.2-0.5,0.3
		l0,0c-0.1,0-0.1,0.1-0.1,0.1c0,0,0,0,0,0c0.2-0.2,0.3-0.6,0.3-0.9c0,0,0.1,0.1,0.1,0.1c0,0,0.1,0.1,0.1,0.1l0.2,0.2l0.1-0.3
		c0-0.2,0.1-0.5,0-0.8c0-0.2-0.1-0.3-0.2-0.4c0,0,0-0.1,0-0.1c0-0.1,0.1-0.2,0.1-0.3l0.1-0.2l-0.2,0c-0.3,0-0.9,0.4-1.3,0.8
		c-0.2,0.2-0.3,0.3-0.4,0.5c-0.1,0.2-0.1,0.4-0.1,0.6c0,0.2,0.1,0.4,0.3,0.5c0,0.1,0.1,0.2,0.1,0.3c0,0.1,0.1,0.2,0.1,0.3
		c0.1,0.3,0.3,0.4,0.5,0.5c0.2,0.1,0.4,0.1,0.6,0c0,0.2-0.1,0.5-0.1,0.7c0,0.3,0,0.7,0,1.1c0,0.1,0,0.2,0,0.3c0,0.1,0,0.2,0,0.3
		c0,0.1-0.1,0.2-0.1,0.3l-0.2,0.5l-0.4,0.4c-0.1,0.1-0.2,0.2-0.4,0.4c0,0-0.1,0-0.1,0.1c-0.2,0.2-0.3,0.3-0.2,0.7
		c0,0.3,0.1,0.5,0.3,0.7c0.1,0.2,0.3,0.4,0.5,0.6c0.3,0.3,0.7,0.6,1.1,0.7c0.2,0.1,0.5,0.1,0.7,0.1c0,0,0,0.1,0,0.1
		c0,0.1-0.1,0.2-0.1,0.3c-0.3,0.6,0,1,0.5,1.2c0.2,0.1,0.5,0.2,0.8,0.2c0.1,0,0.1,0,0.2,0c0.3,0.1,0.8,0.2,1.3,0.3
		c0.5,0,1-0.1,1.1-0.6c0.1-0.2,0.1-0.3,0.1-0.5c0-0.1,0-0.3,0-0.4c0.2-0.3,0.2-0.4,0.3-0.6c0,0,0-0.1,0.1-0.1
		c0.1-0.2,0.2-0.3,0.2-0.4c0-0.1,0-0.3,0-0.5c0,0,0,0,0-0.1c0.3,0,0.6,0.1,0.9,0.1c0.2,0,0.3,0,0.5,0c0,0-0.1,0-0.1,0.1l-0.1,0
		c-0.4,0.2-0.4,0.6-0.3,1c0.1,0.4,0.4,0.8,0.5,1c0.3,0.5,0.6,0.9,1,1.1c0.4,0.2,0.8,0.3,1.4,0c0.3-0.2,0.4-0.3,0.5-0.5
		c0-0.1,0.1-0.1,0.1-0.2c0.1-0.1,0.4-0.3,0.7-0.6c0.1-0.1,0.2-0.2,0.3-0.3c0.1,0.1,0.2,0.1,0.3,0.1c0.1,0,0.3,0.1,0.5,0.1
		c0.2,0,0.7,0,1,0c0.1,0,0.2,0,0.2,0c0.3,0,0.6,0,0.8-0.1c0.2-0.1,0.3-0.3,0.4-0.7c0-0.2,0-0.3,0-0.4c0-0.1-0.1-0.2-0.1-0.3
		c0-0.2,0-0.3,0-0.5c0-0.2,0-0.4,0-0.5c0-0.2,0-0.4-0.1-0.6c0-0.2-0.1-0.3-0.2-0.5c-0.1-0.1-0.1-0.2-0.1-0.4l-0.1,0l0,0l0.1,0l0,0
		c-0.1-0.2-0.1-0.4-0.2-0.6c0,0,0-0.1,0-0.1l0.2,0.2l0.3,0.3c0.2,0.2,0.4,0.4,0.6,0.5c0.2,0.1,0.5,0.2,0.8,0.2
		c0.4,0,0.7-0.2,1.1-0.4c0.3-0.2,0.5-0.5,0.7-0.9l0.1-0.3l0.1-0.2c0.5,0.1,1,0.1,1.6,0.1c0.5-0.1,1-0.2,1.4-0.4
		c0.6-0.3,1.1-0.8,1.4-1.4l0,0c0.4-0.6,0.6-1.4,0.7-2.2C2204.6,418,2204.6,417.1,2204.4,416.3L2204.4,416.3z M2197.9,421.5
		c-0.3-0.1-0.5-0.2-0.7-0.4c0.1,0.3,0.1,0.6,0,1c-0.1,0.5-0.4,1.3,0.3,1.4c0.3,0.1,0.4,0,0.7-0.1c-0.3,0.1-0.4,0.1-0.6,0
		c-0.2,0-0.3-0.1-0.3-0.3c0.1,0,0.2,0.1,0.3,0.1c0.5,0.1,1-0.1,1.1-0.5c0.1-0.2,0-0.3,0.2-0.6c0.1,0,0.2,0.1,0.3,0.1l-0.2,0.6
		c-0.2,0.5-0.8,0.9-1.3,0.9c-0.5,0-0.8-0.3-1.2-0.6c-0.2-0.2-0.5-0.4-0.7-0.6c-0.6-0.2-1.1-0.4-1.7-0.9c0.4,0.5,0.7,0.8,1.3,1
		c-0.1,0.9-0.4,1.5-0.6,2.3c-0.1,0.4-1,1.9-1.3,2c-0.2,0.1-1.3,1.1-1.5,1.2c-0.2,0.2-0.3,0.5-0.5,0.6c-0.7,0.4-1.2-0.4-1.6-1
		c-0.2-0.3-0.7-1.1-0.2-1.3c0.4-0.2,0.6-0.4,1-0.6c0.1,0.1,0.2,0.2,0.2,0.3l0-0.4c0-0.2,0-0.4,0-0.6c0-0.2,0-0.4,0.1-0.6
		c-0.1,0.2-0.2,0.4-0.2,0.7c0,0.1,0,0.2-0.1,0.2c-0.9,0.2-1.9,0.2-2.8,0c-0.1-0.3-0.1-0.7-0.2-1c0,0.3,0,1.1,0,1.5
		c0,0.3,0,0.5-0.2,0.8c-0.2,0.3-0.2,0.3-0.5,0.8c0,0.3,0,0.5-0.1,0.8c-0.1,0.5-1.4,0.1-1.8,0c-0.4-0.1-1.3-0.3-1.1-0.9
		c0.2-0.5,0.3-1,0.4-1.7c-0.8-1.1-1.5-2.7-1.6-4c-0.1-1.1,0-1.7,0.2-2.4c0.4-1,0.9-1.9,1.7-2.6c1.1-1,2.1-1.4,3.7-1.6
		c-0.4,0.4-0.8,0.9-1.2,1.4c-0.4,0.5-0.7,1-0.9,1.5c-0.4,0.8-0.4,1,0.1,1.7c0.4,0.6,0.7,0.8,0.8,1.4c-0.2,0.3-0.2,0.6-0.3,1
		c0.5,0.6,0.9,1,1.4,1.1c0.5,0.1,0.9,0.1,1.3-0.1c1-0.5,1.9-1.1,3-1.2c0.5-1.3,0.5-2.3,0.2-3.5c-0.2-0.8-0.2-1.6-0.3-2.5
		c-0.2,0.9-0.2,1.6-0.1,2.5c0.2,1,0.3,2.2-0.2,3.1c-1,0.1-1.9,0.7-2.8,1.2c-0.4,0.2-0.7,0.2-1.1,0.1c-0.4-0.1-0.6-0.3-1-0.8
		c0-0.5,0.1-0.7,0.3-1.1c0.3-0.7,0.7-1.3,1.1-2c-0.5,0.6-1,1.1-1.4,1.7c-0.2-0.4-0.4-0.7-0.7-1.1c-0.4-0.5-0.4-0.7-0.1-1.2
		c0.3-0.6,0.5-1,0.9-1.5c0.8-0.8,1.5-1.8,2.4-2.6c0.5-0.5,0.7-0.4,1.3-0.5c0.6-0.1,1.1-0.2,1.7-0.3c-0.5,0.1-1.1,0.1-1.6,0.1h0
		c0.5-0.7,0.8-1,1.7-1.4c2.1-0.9,3.4-1,5.1,0.4c0.4,0.4,0.8,0.7,1.2,1c-0.2,0-0.3,0-0.5,0.1c0.2,0,0.5,0,0.7,0
		c0.1,0,0.1,0.1,0.2,0.1c0.3,0.2,0.5,0.3,0.7,0.6c0.2,0.3,0.4,0.6,0.6,0.9c-0.1,0-0.2-0.1-0.3-0.1c-0.2-0.1-0.4-0.1-0.6,0l0,0
		c-0.2,0.1-0.4,0.2-0.6,0.2c0.1,0,0.3,0,0.4,0c0,0,0,0,0,0c0,0.1-0.1,0.2-0.1,0.2c0,0.1,0,0.2,0.1,0.3v0c0,0,0,0.1,0.1,0.1
		c-0.1,0-0.2,0.1-0.2,0.1c0.4-0.1,0.7-0.1,1.1,0c0,0.1,0.1,0.2,0.1,0.4l-0.1,0c0,0,0,0,0,0c-0.2-0.1-0.4-0.1-0.7-0.1
		c-0.8,0.2-0.6,0.7-1,1.4c0.4-0.5,0.4-1,1-1.2c0.2,0,0.3-0.1,0.4-0.1c-0.2,0.1-0.3,0.2-0.4,0.4c-0.2,0.5-0.1,0.9-0.3,1.4
		c0.2-0.4,0.3-0.8,0.5-1.3c0.1-0.2,0.4-0.4,0.5-0.4l0.1,0c0,0.3,0.1,0.6,0.1,0.8c0,0.4-0.1,1-0.2,1.3c0.2-0.3,0.3-0.9,0.4-1.3
		c0.1-0.4,0.1-1,0-1.4c-0.1-0.6,0.5-0.5,0.9-0.8c0.3-0.2,0.5-0.6,0.7-0.8c0.3-0.3,0.7,0.1,0.8,0.4c0.4,1.1,0.6,2.8,0.5,3.8
		c-0.1,1.2-0.7,2.5-1.8,3.1C2200.9,422.5,2199.3,422,2197.9,421.5L2197.9,421.5z M2196,426.9c0,0.5-0.2,0.5-0.7,0.5
		c-0.2,0-1,0-1.2,0c-0.3,0-0.4-0.1-0.5-0.1c0.4-0.3,1.2-1.7,1.4-2.2c0.2-0.5,0.3-0.9,0.5-1.4c0.1,0.2,0.1,0.4,0.2,0.6
		c0.1,0.3,0.2,0.5,0.2,0.9l0,1.1C2196,426.6,2196,426.7,2196,426.9L2196,426.9z M2182.6,423.1c0.3,1,0.8,1.9,1.3,2.8v0
		c0,0.1-0.1,0.3-0.2,0.4c-0.4,0.5-1.4-0.2-1.6-0.5c-0.3-0.3-0.5-0.7-0.6-1c0-0.3,0-0.3,0.2-0.4l0.7-0.7L2182.6,423.1L2182.6,423.1z
		 M2182,417c-0.1,0.2-0.1,0.3-0.2,0.4c-0.2,0.5,0.1,1-0.4,1.4c0.2,0.5,0.2,0.6,0.7,0.4c0.2-0.1,0.4-0.2,0.5-0.3
		c-0.1,0.2-0.1,0.4-0.2,0.6c0,0,0,0.1,0,0.1c-0.4,0.2-0.9,0.3-1.1-0.1c-0.1-0.2-0.1-0.4-0.2-0.6C2180.6,418.1,2181.5,417.3,2182,417
		L2182,417z M2182.3,417.6c-0.1-0.1-0.1-0.1-0.2-0.1c0-0.1,0-0.1,0-0.2c0,0,0-0.1,0-0.1C2182.3,417.3,2182.3,417.5,2182.3,417.6
		L2182.3,417.6z M2200.8,415.2c0,0,0,0.1,0.1,0.1c0,0,0,0-0.1,0c0-0.1-0.1-0.1-0.1-0.2C2200.7,415.3,2200.8,415.2,2200.8,415.2
		L2200.8,415.2z M2183,418.2L2183,418.2L2183,418.2L2183,418.2z M2187.7,425.9L2187.7,425.9L2187.7,425.9z M2193.3,427.6
		L2193.3,427.6L2193.3,427.6z M2195.6,423.3L2195.6,423.3L2195.6,423.3L2195.6,423.3z M2182.1,418.9L2182.1,418.9L2182.1,418.9
		L2182.1,418.9L2182.1,418.9z M2203.8,420.7L2203.8,420.7L2203.8,420.7z M2179.9,418.8c0.1-1.1,0.3-1.6,1.1-2.4
		C2180,417,2179.8,417.4,2179.9,418.8"/>
	<path class="st3" d="M2179.6,417.9c0.1-0.5,0.2-0.7,0.5-1.1C2179.7,417.1,2179.6,417.3,2179.6,417.9 M2191.3,410.9
		c-0.6,0.1-0.7,0.3-0.9,0.8C2190.7,411.3,2190.8,411.2,2191.3,410.9"/>
	<path class="st3" d="M2192.2,410.8c-1.2,0.3-1.5,0.5-1.9,1.9C2190.8,411.7,2191.2,411.3,2192.2,410.8 M2194.7,415.8
		c0.1-0.6,0.3-1.1,1.2-1.5C2194.8,414.6,2194.6,415,2194.7,415.8 M2202,415.8c0.7-0.2,1-0.8,1.2-1.4c-0.3,0.5-0.7,1-1.2,1.3
		c-0.3,0.1-0.5,0.1-0.8,0.1C2201.5,415.8,2201.7,415.9,2202,415.8 M2197.4,416.4c-0.1-0.2-0.2-0.3-0.4-0.4c0.2-0.1,0.3-0.2,0.5-0.3
		c-0.4,0.2-0.8,0.1-1.1,0.3c-0.3,0.2-0.7,0.8-1,1.1c0.2-0.1,0.4-0.2,0.6-0.4c0,0.3,0.2,0.5,0.4,0.7c-0.1,0.1-0.2,0.3-0.3,0.5
		c0.5-0.6,1.3-1.1,2.1-1.3c-0.2,0-0.5,0-0.7,0.1C2197.5,416.5,2197.4,416.4,2197.4,416.4 M2196.6,421.2c0,0.2-0.1,0.4-0.1,0.5
		c0.1-0.2,0.2-0.4,0.2-0.6c0.1-0.2,0.1-0.2,0.3-0.3c0.1-0.1,0.4-0.2,0.5-0.2c-0.1,0-0.4,0.1-0.5,0.1
		C2196.7,420.8,2196.7,420.9,2196.6,421.2 M2190.4,414.8c-0.4,0.4-0.8,1.8-1,2.4c0.2-0.5,0.7-1.8,1.1-2.1c0.1-0.1,0.2-0.2,0.3-0.2
		c-0.3,0.5-0.3,0.6-0.2,1.2c0.1-0.6,0.3-0.9,0.7-1.4c0.4-0.1,0.8-0.2,1.2-0.4c-0.5,0.1-0.9,0.1-1.4,0.1
		C2190.8,414.5,2190.7,414.5,2190.4,414.8"/>
	<path class="st1" d="M2196.2,417.2c-0.1-0.2,0-0.4,0.2-0.4c0.2-0.1,0.4,0,0.4,0.2c0,0,0,0,0,0c-0.2,0.1-0.3,0.2-0.4,0.4
		C2196.3,417.3,2196.2,417.3,2196.2,417.2 M2199.7,415.8c0-0.1,0.1-0.2,0.3-0.2c0.1,0,0.2,0.1,0.2,0.3c0,0,0,0.1,0,0.1
		c-0.1,0-0.2,0.1-0.4,0.1C2199.8,416,2199.7,415.9,2199.7,415.8"/>
</g>
</svg>
