<?xml version="1.0" encoding="utf-8"?>
<!-- Generator: Adobe Illustrator 19.0.1, SVG Export Plug-In . SVG Version: 6.00 Build 0)  -->
<svg version="1.1" id="圖層_1" xmlns="http://www.w3.org/2000/svg" xmlns:xlink="http://www.w3.org/1999/xlink" x="0px" y="0px"
	 viewBox="2189.5 407.9 24.9 24.9" style="enable-background:new 2189.5 407.9 24.9 24.9;" xml:space="preserve">
<style type="text/css">
	.st0{fill:#5DBEBB;}
	.st1{fill:#AEDEDD;}
	.st2{fill:#53ABA8;}
	.st3{fill:#4A9895;}
</style>
<g>
	<path class="st0" d="M2198.7,415.2l-1.7,0.3l-1.5,0.7l-1.3,0.8l-1.2,1.5l-0.7,0.7l-0.7,0.2l-0.2-0.4l0.3-0.4l0.1-0.6l0.2,0l0.2,0.2
		l-0.1-0.6l-0.3-0.2l0-0.2l-0.6,0.3l-0.5,0.6l-0.1,0.6l0.2,0.5l0.2,0.8l0.4,0.2l0.5,0l0.4-0.3l-0.3,1.5l0.3,1.6l-0.3,0.8l-1,1.1
		l0.2,0.7l0.5,0.8l0.9,0.7l0.5,0.1l0.6,0l-0.3,1.4l1.3,0.5l1.6,0.2l0.5-0.4l0-1l0.6-1l0-0.8l1.5,0.1l1.3-0.1l-1.3,0.8l0.2,1l0.8,1.3
		l0.8,0.4l0.7-0.3l0.3-0.5l1.4-1.1l0.3,0.2l2.2,0.1l0.4-0.4l0-0.6l-0.1-0.3l-0.1-1.7l-0.7-1.5l0.1-0.6l0.4,0.2l1.2,1.1l0.6,0
		l0.7-0.3l0.7-0.5l0.3-1.1l1.9,0.1l1.2-0.5l1-0.9l0.7-1.3l0.2-1.5l-0.1-1.8l-0.4-1.6l-0.4-0.5l-0.5-0.2l-0.9,1l-0.8,0.3l-0.7-1.2
		l-0.7-0.7l-0.4-0.2l-1.6-1.3l-1.3-0.7l-1.3-0.1l-1.5,0.2l-1.3,0.5l-0.9,0.7l-0.7,0.9l-0.7,0.2L2198.7,415.2"/>
	<path class="st1" d="M2193.9,418.9c-1.4,1.7-1.1,3.7-0.7,5.6c-0.2-0.5-0.4-1.1-0.6-1.6l-0.2-1.5c0-0.5,0-1,0.1-1.5l0.6-1.4l0.9-1.3
		l1.4-1.2l1.5-0.6l1.8-0.2l-1.7,1.9C2195.6,417.5,2194.8,417.8,2193.9,418.9"/>
	<path class="st1" d="M2200.6,413.9c-1,1-1.5,1.7-2.2,2.8c-0.4,0.8-1,1.6-1.4,2.4c-0.2,0.4-0.3,0.7-0.3,1.2l-0.7-0.8
		c0.1-0.3,0.2-0.7,0.3-1l1.1-2l2.4-2.4C2200.1,414,2200.3,413.9,2200.6,413.9 M2205.5,411.5c-0.8,0.3-2.1,0.4-2.2,1.3
		c-0.1,0.6,0,1,0.4,1.7c-1-1-1.2-0.8-3.1-0.5l0.8-1.1l1.4-0.9l1.8-0.4L2205.5,411.5"/>
	<path class="st2" d="M2207.7,423.8c0.3,0.2,0.3,0.3,0.2,0.4c0.2-0.1,0.4-0.2,0.6-0.2l0.4-0.5l0.3-0.8l-0.4-0.3l-1.7,0.2
		c0,0.1-0.1,0.2-0.1,0.3c0,0.2,0,0.3,0,0.5c0.1,0.1,0.1,0.2,0.2,0.3c0.1,0,0.2,0.1,0.2,0.1C2207.5,423.7,2207.6,423.7,2207.7,423.8
		 M2207.5,420.9c-0.8,0.2-0.8,0.3-1.1,1.1C2206.7,421.5,2207,421.2,2207.5,420.9 M2213.1,414.7c-0.1,0.1-0.3,0.1-0.4,0.2
		c-0.2,0.3-0.4,0.5-0.7,0.7c-0.2,0.1-0.3,0.2-0.5,0.2c-0.1,0-0.2,0-0.4,0.1c0.1,0,0.1,0,0.2,0h0.5l0.6-0.4l0.4-0.4L2213.1,414.7
		 M2199.7,416.5c-0.3,0.9-0.6,1.7-1.1,2.5c0.6-0.7,1-1.3,1.4-2.1c0.1-0.3,0.2-0.7,0.6-0.5c0,0.3,0.1,0.6,0.1,0.9
		c0.2-1.5,0.8-2.2,2.2-2.8l-1.2,0.1l-1.1,0.2l-0.6,0.8L2199.7,416.5 M2202.4,416.5c0.3,1.4,0.7,2.8,0.9,4.2c0.1,0.9,0.1,1.4-0.3,2.2
		c-0.5,0-0.8,0-1.3,0.2c-2,0.7-3.1,1.6-4.5-0.3l1.3,0.6c0.3-0.1,0.6-0.1,0.9-0.2c0.5-0.3,1.1-0.6,1.6-0.9l1.3-0.2l0.4-1.7l-0.3-2.3
		c0-0.4,0-0.7,0-1.1C2202.4,416.8,2202.4,416.7,2202.4,416.5 M2205.9,425.3c-0.2,1.2,0.4,1.8,0.2,2.1c-0.1,0.1-0.2,0.2-0.3,0.3
		c-0.4,0.2-0.8,0-0.9,0.1h-1.2l-0.5-0.2l0.7-0.8c0.2-0.5,0.5-1,0.7-1.5l0.4-1.5h0.2L2205.9,425.3"/>
	<path class="st2" d="M2203.9,421.9c0.1,0.5,0.3,0.7,0.5,1.2c-0.2,0.8-0.4,1.8-0.7,2.6c-0.1,0.3-0.2,0.5-0.5,0.7
		c-0.4,0.4-0.8,0.8-1.3,1.1c-0.3,0.3-0.6,0.1-1,0.1c-0.2,0.3-0.2,0.5-0.5,0.6c-0.5,0.2-0.9-0.3-1.3-0.6c0.3,0.4,0.5,0.9,0.8,1.3
		c0.2,0.2,0.4,0.4,0.6,0.5l0.5,0.1l0.6-0.4c0.1-0.2,0.2-0.4,0.3-0.6c0.2-0.2,0.5-0.4,0.7-0.5c0.3-0.2,0.6-0.5,0.9-0.7l0.6-0.8
		l0.5-0.9c0.2-0.6,0.4-1.3,0.6-1.9c0-0.2,0-0.5,0.1-0.7c-0.3-0.1-0.5-0.2-0.8-0.4C2204.3,422.3,2204.1,422.1,2203.9,421.9
		 M2197.5,425.7c0.9,0,1.8-0.1,2.7-0.4c0.2-0.3,0.5-0.6,0.7-0.9c-0.3,0.5-0.3,0.8-0.4,1.3l-0.3,0.4c-0.7,0-1.4,0-2,0.1
		c-0.2,0-0.4,0-0.7-0.1c0,0,0,0-0.1-0.1C2197.5,425.8,2197.5,425.7,2197.5,425.7 M2197.4,425l-0.1-0.6c-0.2,0.9-0.1,1.5-0.5,2.4
		c-0.3,0.4-0.7,0.7-1.2,0.9c0,0.2,0,0.4,0,0.5c-0.1,0.6-1.3,0.3-1.8,0.3l2.4,0.6l0.5-0.2c0.1-0.3,0.1-0.7,0.2-1l0.5-0.9l0.1-0.6
		L2197.4,425 M2196.1,419.8c0,0.4-0.1,0.6,0.1,1c0.3,0.5,0.6,1,0.8,1.5l0.1-1C2196.8,420.8,2196.4,420.3,2196.1,419.8 M2192.4,423.2
		c-0.1,0.2-0.2,0.3-0.2,0.5c0.2,0.7,0.4,1.2,0.8,1.8c-0.1,0.3-0.1,0.4-0.3,0.6c-0.4-0.1-0.7-0.1-1-0.1c0.4,0.3,0.8,0.6,1.2,0.9
		c0.2,0,0.4-0.1,0.6-0.1l0.6-0.6l-0.8-1.3C2193,424.4,2192.7,423.8,2192.4,423.2 M2213.1,414.4c0.2,1.1,0.6,2.1,0.5,3.2
		c0,1.4-0.3,3.1-1.6,3.9c-1.4,0.9-3.1,0.5-4.6,0.1l1.9,0.8c0.6,0,1.2,0.1,1.8,0.1c0.4-0.1,0.8-0.2,1.2-0.4c0.3-0.3,0.6-0.5,0.9-0.8
		l0.7-1.5l0.3-1.7c-0.1-0.6-0.1-1.1-0.2-1.7l-0.4-1.7C2213.4,414.7,2213.3,414.5,2213.1,414.4 M2191.9,417.7
		c-0.6,0.4-0.9,0.6-0.8,1.4l0.2,0.7l0.3,0.2l0.3,0.1l0.6-0.1c0.1-0.3,0.2-0.6,0.3-1l-0.9,0.4h-0.2c-0.1-0.1-0.2-0.2-0.2-0.3l0.3-0.4
		l0.1-0.8c0.1,0,0.1,0,0.2,0.1c0.1,0.1,0.2,0.1,0.2,0.2l0-0.4l-0.2-0.3c-0.1,0-0.1-0.1-0.2-0.1L2191.9,417.7 M2206.4,411.5
		c0.6,0.5,1.3,1,1.7,1.6c0.2,0.3,0.4,0.4,0,0.7c0.4-0.1,0.5-0.1,0.9-0.1c0.6,0.1,1.1,0.9,1.2,1.5c0,0.1-0.2,0.2-0.6,0.3
		c0,0-0.3,0-0.2,0c0,0.1,0.1,0.1,0.2,0.2c0,0.1,0,0.4,0.1,0.5c0.3,0,0.6,0,0.8,0.1c0.1,0.2,0.1,0.3,0.1,0.5l0.3-0.1
		c0-0.2-0.1-0.5-0.1-0.7c0.1-0.2,0.2-0.3,0.3-0.5l-0.4-0.9c-0.3-0.2-0.5-0.5-0.8-0.7l-0.1,0c-0.3-0.2-0.6-0.4-0.9-0.5l-1.4-1.2
		L2206.4,411.5 M2207.3,415.9c0,0.1-0.1,0.1-0.1,0.2c0.2,0.2,0.4,0.4,0.4,0.7c-0.3,0.1-0.5,0.3-0.8,0.4l-0.7,0.7
		c-0.3-0.2-0.4-0.3-0.5-0.6c-0.2,0-0.3,0.1-0.5,0c0.1,0,0.1,0,0.2-0.1l0.4-0.5c0.3-0.2,0.5-0.4,0.8-0.6l0.5-0.2
		C2207.1,416,2207.3,416,2207.3,415.9"/>
	<path class="st2" d="M2208.1,416.7c-0.9,0.5-1.7,0.9-2.1,1.8C2205.9,417.4,2207.1,416.9,2208.1,416.7 M2205.8,414.5
		c-0.6,0.4-1.1,1.3-1,2.2c-0.2-0.7-0.1-1.4,0.5-1.9c0.1-0.1,0.2-0.1,0.3-0.2C2205.6,414.6,2205.7,414.6,2205.8,414.5"/>
	<path class="st3" d="M2214.3,416.6c-0.1-0.7-0.3-1.4-0.6-1.9c0-0.1-0.1-0.1-0.1-0.2c-0.1-0.1-0.3-0.3-0.5-0.3
		c-0.2-0.1-0.4-0.1-0.6,0c0,0-0.1,0.1-0.1,0.1c-0.1,0.1-0.2,0.3-0.3,0.4c-0.1,0.2-0.2,0.3-0.3,0.4c-0.2,0.1-0.3,0.2-0.5,0.3
		c-0.1-0.2-0.2-0.4-0.3-0.5c-0.1-0.2-0.3-0.4-0.4-0.6c-0.1-0.1-0.2-0.3-0.4-0.4c-0.1-0.1-0.3-0.2-0.4-0.3c-0.4-0.3-0.8-0.6-1.2-0.9
		c-0.2-0.1-0.3-0.3-0.5-0.4c-0.9-0.7-1.7-1.1-2.6-1.1c-0.9-0.1-1.8,0.2-2.9,0.6c-0.5,0.2-0.9,0.5-1.2,0.8c-0.3,0.3-0.6,0.6-0.9,1
		c-0.2,0-0.3,0-0.5,0.1c-0.2,0.1-0.4,0.2-0.6,0.4c-0.1,0.1-0.3,0.3-0.4,0.4c-0.1,0.1-0.3,0.3-0.4,0.4c-1,0.2-1.8,0.3-2.5,0.6
		c-0.7,0.3-1.4,0.7-2,1.3c-0.3,0.2-0.5,0.5-0.7,0.8c-0.2,0.3-0.4,0.5-0.5,0.8c-0.1,0.1-0.3,0.3-0.4,0.4c-0.1,0.1-0.3,0.2-0.5,0.3
		l0,0c-0.1,0-0.1,0.1-0.1,0.1c0,0,0,0,0,0c0.2-0.2,0.3-0.6,0.3-0.9c0,0,0.1,0.1,0.1,0.1c0,0,0.1,0.1,0.1,0.1l0.2,0.2l0.1-0.3
		c0-0.2,0.1-0.5,0-0.8c0-0.2-0.1-0.3-0.2-0.4c0,0,0-0.1,0-0.1c0-0.1,0.1-0.2,0.1-0.3l0.1-0.2l-0.2,0c-0.3,0-0.9,0.4-1.3,0.8
		c-0.2,0.2-0.3,0.3-0.4,0.5c-0.1,0.2-0.1,0.4-0.1,0.6c0,0.2,0.1,0.4,0.3,0.5c0,0.1,0.1,0.2,0.1,0.3c0,0.1,0.1,0.2,0.1,0.3
		c0.1,0.3,0.3,0.4,0.5,0.5c0.2,0.1,0.4,0.1,0.6,0c0,0.2-0.1,0.5-0.1,0.7c0,0.3,0,0.7,0,1.1c0,0.1,0,0.2,0,0.3c0,0.1,0,0.2,0,0.3
		c0,0.1-0.1,0.2-0.1,0.3l-0.2,0.5l-0.4,0.4c-0.1,0.1-0.2,0.2-0.4,0.4c0,0-0.1,0-0.1,0.1c-0.2,0.2-0.3,0.3-0.2,0.7
		c0,0.3,0.1,0.5,0.3,0.7c0.1,0.2,0.3,0.4,0.5,0.6c0.3,0.3,0.7,0.6,1.1,0.7c0.2,0.1,0.5,0.1,0.7,0.1c0,0,0,0.1,0,0.1
		c0,0.1-0.1,0.2-0.1,0.3c-0.3,0.6,0,1,0.5,1.2c0.2,0.1,0.5,0.2,0.8,0.2c0.1,0,0.1,0,0.2,0c0.3,0.1,0.8,0.2,1.3,0.3
		c0.5,0,1-0.1,1.1-0.6c0.1-0.2,0.1-0.3,0.1-0.5c0-0.1,0-0.3,0-0.4c0.2-0.3,0.2-0.4,0.3-0.6c0,0,0-0.1,0.1-0.1
		c0.1-0.2,0.2-0.3,0.2-0.4c0-0.1,0-0.3,0-0.5c0,0,0,0,0-0.1c0.3,0,0.6,0.1,0.9,0.1c0.2,0,0.3,0,0.5,0c0,0-0.1,0-0.1,0.1l-0.1,0
		c-0.4,0.2-0.4,0.6-0.3,1c0.1,0.4,0.4,0.8,0.5,1c0.3,0.5,0.6,0.9,1,1.1c0.4,0.2,0.8,0.3,1.4,0c0.3-0.2,0.4-0.3,0.5-0.5
		c0-0.1,0.1-0.1,0.1-0.2c0.1-0.1,0.4-0.3,0.7-0.6c0.1-0.1,0.2-0.2,0.3-0.3c0.1,0.1,0.2,0.1,0.3,0.1c0.1,0,0.3,0.1,0.5,0.1
		c0.2,0,0.7,0,1,0c0.1,0,0.2,0,0.2,0c0.3,0,0.6,0,0.8-0.1c0.2-0.1,0.3-0.3,0.4-0.7c0-0.2,0-0.3,0-0.4c0-0.1-0.1-0.2-0.1-0.3
		c0-0.2,0-0.3,0-0.5c0-0.2,0-0.4,0-0.5c0-0.2,0-0.4-0.1-0.6c0-0.2-0.1-0.3-0.2-0.5c-0.1-0.1-0.1-0.2-0.1-0.4l-0.1,0l0,0l0.1,0l0,0
		c-0.1-0.2-0.1-0.4-0.2-0.6c0,0,0-0.1,0-0.1l0.2,0.2l0.3,0.3c0.2,0.2,0.4,0.4,0.6,0.5c0.2,0.1,0.5,0.2,0.8,0.2
		c0.4,0,0.7-0.2,1.1-0.4c0.3-0.2,0.5-0.5,0.7-0.9l0.1-0.3l0.1-0.2c0.5,0.1,1,0.1,1.6,0.1c0.5-0.1,1-0.2,1.4-0.4
		c0.6-0.3,1.1-0.8,1.4-1.4l0,0c0.4-0.6,0.6-1.4,0.7-2.2C2214.5,418.2,2214.5,417.4,2214.3,416.6L2214.3,416.6z M2207.8,421.8
		c-0.3-0.1-0.5-0.2-0.7-0.4c0.1,0.3,0.1,0.6,0,1c-0.1,0.5-0.4,1.3,0.3,1.4c0.3,0.1,0.4,0,0.7-0.1c-0.3,0.1-0.4,0.1-0.6,0
		c-0.2,0-0.3-0.1-0.3-0.3c0.1,0,0.2,0.1,0.3,0.1c0.5,0.1,1-0.1,1.1-0.5c0.1-0.2,0-0.3,0.2-0.6c0.1,0,0.2,0.1,0.3,0.1l-0.2,0.6
		c-0.2,0.5-0.8,0.9-1.3,0.9c-0.5,0-0.8-0.3-1.2-0.6c-0.2-0.2-0.5-0.4-0.7-0.6c-0.6-0.2-1.1-0.4-1.7-0.9c0.4,0.5,0.7,0.8,1.3,1
		c-0.1,0.9-0.4,1.5-0.6,2.3c-0.1,0.4-1,1.9-1.3,2c-0.2,0.1-1.3,1.1-1.5,1.2c-0.2,0.2-0.3,0.5-0.5,0.6c-0.7,0.4-1.2-0.4-1.6-1
		c-0.2-0.3-0.7-1.1-0.2-1.3c0.4-0.2,0.6-0.4,1-0.6c0.1,0.1,0.2,0.2,0.2,0.3l0-0.4c0-0.2,0-0.4,0-0.6c0-0.2,0-0.4,0.1-0.6
		c-0.1,0.2-0.2,0.4-0.2,0.7c0,0.1,0,0.2-0.1,0.2c-0.9,0.2-1.9,0.2-2.8,0c-0.1-0.3-0.1-0.7-0.2-1c0,0.3,0,1.1,0,1.5
		c0,0.3,0,0.5-0.2,0.8c-0.2,0.3-0.2,0.3-0.5,0.8c0,0.3,0,0.5-0.1,0.8c-0.1,0.5-1.4,0.1-1.8,0c-0.4-0.1-1.3-0.3-1.1-0.9
		c0.2-0.5,0.3-1,0.4-1.7c-0.8-1.1-1.5-2.7-1.6-4c-0.1-1.1,0-1.7,0.2-2.4c0.4-1,0.9-1.9,1.7-2.6c1.1-1,2.1-1.4,3.7-1.6
		c-0.4,0.4-0.8,0.9-1.2,1.4c-0.4,0.5-0.7,1-0.9,1.5c-0.4,0.8-0.4,1,0.1,1.7c0.4,0.6,0.7,0.8,0.8,1.4c-0.2,0.3-0.2,0.6-0.3,1
		c0.5,0.6,0.9,1,1.4,1.1c0.5,0.1,0.9,0.1,1.3-0.1c1-0.5,1.9-1.1,3-1.2c0.5-1.3,0.5-2.3,0.2-3.5c-0.2-0.8-0.2-1.6-0.3-2.5
		c-0.2,0.9-0.2,1.6-0.1,2.5c0.2,1,0.3,2.2-0.2,3.1c-1,0.1-1.9,0.7-2.8,1.2c-0.4,0.2-0.7,0.2-1.1,0.1c-0.4-0.1-0.6-0.3-1-0.8
		c0-0.5,0.1-0.7,0.3-1.1c0.3-0.7,0.7-1.3,1.1-2c-0.5,0.6-1,1.1-1.4,1.7c-0.2-0.4-0.4-0.7-0.7-1.1c-0.4-0.5-0.4-0.7-0.1-1.2
		c0.3-0.6,0.5-1,0.9-1.5c0.8-0.8,1.5-1.8,2.4-2.6c0.5-0.5,0.7-0.4,1.3-0.5c0.6-0.1,1.1-0.2,1.7-0.3c-0.5,0.1-1.1,0.1-1.6,0.1h0
		c0.5-0.7,0.8-1,1.7-1.4c2.1-0.9,3.4-1,5.1,0.4c0.4,0.4,0.8,0.7,1.2,1c-0.2,0-0.3,0-0.5,0.1c0.2,0,0.5,0,0.7,0
		c0.1,0,0.1,0.1,0.2,0.1c0.3,0.2,0.5,0.3,0.7,0.6c0.2,0.3,0.4,0.6,0.6,0.9c-0.1,0-0.2-0.1-0.3-0.1c-0.2-0.1-0.4-0.1-0.6,0l0,0
		c-0.2,0.1-0.4,0.2-0.6,0.2c0.1,0,0.3,0,0.4,0c0,0,0,0,0,0c0,0.1-0.1,0.2-0.1,0.2c0,0.1,0,0.2,0.1,0.3v0c0,0,0,0.1,0.1,0.1
		c-0.1,0-0.2,0.1-0.2,0.1c0.4-0.1,0.7-0.1,1.1,0c0,0.1,0.1,0.2,0.1,0.4l-0.1,0c0,0,0,0,0,0c-0.2-0.1-0.4-0.1-0.7-0.1
		c-0.8,0.2-0.6,0.7-1,1.4c0.4-0.5,0.4-1,1-1.2c0.2,0,0.3-0.1,0.4-0.1c-0.2,0.1-0.3,0.2-0.4,0.4c-0.2,0.5-0.1,0.9-0.3,1.4
		c0.2-0.4,0.3-0.8,0.5-1.3c0.1-0.2,0.4-0.4,0.5-0.4l0.1,0c0,0.3,0.1,0.6,0.1,0.8c0,0.4-0.1,1-0.2,1.3c0.2-0.3,0.3-0.9,0.4-1.3
		c0.1-0.4,0.1-1,0-1.4c-0.1-0.6,0.5-0.5,0.9-0.8c0.3-0.2,0.5-0.6,0.7-0.8c0.3-0.3,0.7,0.1,0.8,0.4c0.4,1.1,0.6,2.8,0.5,3.8
		c-0.1,1.2-0.7,2.5-1.8,3.1C2210.8,422.7,2209.2,422.3,2207.8,421.8L2207.8,421.8z M2205.9,427.2c0,0.5-0.2,0.5-0.7,0.5
		c-0.2,0-1,0-1.2,0c-0.3,0-0.4-0.1-0.5-0.1c0.4-0.3,1.2-1.7,1.4-2.2c0.2-0.5,0.3-0.9,0.5-1.4c0.1,0.2,0.1,0.4,0.2,0.6
		c0.1,0.3,0.2,0.5,0.2,0.9l0,1.1C2205.9,426.9,2205.9,426.9,2205.9,427.2L2205.9,427.2z M2192.5,423.4c0.3,1,0.8,1.9,1.3,2.8v0
		c0,0.1-0.1,0.3-0.2,0.4c-0.4,0.5-1.4-0.2-1.6-0.5c-0.3-0.3-0.5-0.7-0.6-1c0-0.3,0-0.3,0.2-0.4l0.7-0.7L2192.5,423.4L2192.5,423.4z
		 M2191.9,417.2c-0.1,0.2-0.1,0.3-0.2,0.4c-0.2,0.5,0.1,1-0.4,1.4c0.2,0.5,0.2,0.6,0.7,0.4c0.2-0.1,0.4-0.2,0.5-0.3
		c-0.1,0.2-0.1,0.4-0.2,0.6c0,0,0,0.1,0,0.1c-0.4,0.2-0.9,0.3-1.1-0.1c-0.1-0.2-0.1-0.4-0.2-0.6
		C2190.5,418.4,2191.4,417.5,2191.9,417.2L2191.9,417.2z M2192.2,417.9c-0.1-0.1-0.1-0.1-0.2-0.1c0-0.1,0-0.1,0-0.2c0,0,0-0.1,0-0.1
		C2192.2,417.6,2192.2,417.7,2192.2,417.9L2192.2,417.9z M2210.7,415.5c0,0,0,0.1,0.1,0.1c0,0,0,0-0.1,0c0-0.1-0.1-0.1-0.1-0.2
		C2210.6,415.5,2210.7,415.5,2210.7,415.5L2210.7,415.5z M2192.9,418.4L2192.9,418.4L2192.9,418.4L2192.9,418.4z M2197.6,426.1
		L2197.6,426.1L2197.6,426.1z M2203.2,427.8L2203.2,427.8L2203.2,427.8z M2205.5,423.5L2205.5,423.5L2205.5,423.5L2205.5,423.5z
		 M2192,419.2L2192,419.2L2192,419.2L2192,419.2L2192,419.2z M2213.7,421L2213.7,421L2213.7,421z M2189.8,419
		c0.1-1.1,0.3-1.6,1.1-2.4C2189.9,417.3,2189.7,417.6,2189.8,419"/>
	<path class="st3" d="M2189.5,418.1c0.1-0.5,0.2-0.7,0.5-1.1C2189.6,417.4,2189.5,417.5,2189.5,418.1 M2201.2,411.1
		c-0.6,0.1-0.7,0.3-0.9,0.8C2200.6,411.5,2200.7,411.4,2201.2,411.1"/>
	<path class="st3" d="M2202.1,411c-1.2,0.3-1.5,0.5-1.9,1.9C2200.7,411.9,2201.1,411.5,2202.1,411 M2204.6,416
		c0.1-0.6,0.3-1.1,1.2-1.5C2204.7,414.8,2204.5,415.3,2204.6,416 M2211.9,416.1c0.7-0.2,1-0.8,1.2-1.4c-0.3,0.5-0.7,1-1.2,1.3
		c-0.3,0.1-0.5,0.1-0.8,0.1C2211.4,416.1,2211.6,416.2,2211.9,416.1 M2207.3,416.6c-0.1-0.2-0.2-0.3-0.4-0.4
		c0.2-0.1,0.3-0.2,0.5-0.3c-0.4,0.2-0.8,0.1-1.1,0.3c-0.3,0.2-0.7,0.8-1,1.1c0.2-0.1,0.4-0.2,0.6-0.4c0,0.3,0.2,0.5,0.4,0.7
		c-0.1,0.1-0.2,0.3-0.3,0.5c0.5-0.6,1.3-1.1,2.1-1.3c-0.2,0-0.5,0-0.7,0.1C2207.4,416.8,2207.3,416.7,2207.3,416.6 M2206.5,421.5
		c0,0.2-0.1,0.4-0.1,0.5c0.1-0.2,0.2-0.4,0.2-0.6c0.1-0.2,0.1-0.2,0.3-0.3c0.1-0.1,0.4-0.2,0.5-0.2c-0.1,0-0.4,0.1-0.5,0.1
		C2206.6,421,2206.6,421.1,2206.5,421.5 M2200.3,415c-0.4,0.4-0.8,1.8-1,2.4c0.2-0.5,0.7-1.8,1.1-2.1c0.1-0.1,0.2-0.2,0.3-0.2
		c-0.3,0.5-0.3,0.6-0.2,1.2c0.1-0.6,0.3-0.9,0.7-1.4c0.4-0.1,0.8-0.2,1.2-0.4c-0.5,0.1-0.9,0.1-1.4,0.1
		C2200.7,414.8,2200.6,414.8,2200.3,415"/>
	<path class="st1" d="M2206.1,417.4c-0.1-0.2,0-0.4,0.2-0.4c0.2-0.1,0.4,0,0.4,0.2c0,0,0,0,0,0c-0.2,0.1-0.3,0.2-0.4,0.4
		C2206.2,417.6,2206.1,417.5,2206.1,417.4 M2209.6,416.1c0-0.1,0.1-0.2,0.3-0.2c0.1,0,0.2,0.1,0.2,0.3c0,0,0,0.1,0,0.1
		c-0.1,0-0.2,0.1-0.4,0.1C2209.7,416.2,2209.6,416.1,2209.6,416.1"/>
</g>
</svg>
