<?xml version="1.0" encoding="utf-8"?>
<!-- Generator: Adobe Illustrator 19.0.1, SVG Export Plug-In . SVG Version: 6.00 Build 0)  -->
<svg version="1.1" id="圖層_1" xmlns="http://www.w3.org/2000/svg" xmlns:xlink="http://www.w3.org/1999/xlink" x="0px" y="0px"
	 viewBox="348 -952.7 1538 2500" style="enable-background:new 348 -952.7 1538 2500;" xml:space="preserve">
<style type="text/css">
	.st0{fill:#5DBEBB;}
</style>
<path class="st0" d="M1560.5,430.7c-97.2,0-184.4,43.1-244.1,110.9l-153-108.3c16.2-44.7,25.6-92.7,25.6-143
	c0-49.4-9-96.6-24.7-140.6l152.6-107.1c59.7,67.5,146.6,110.3,243.6,110.3c179.5,0,325.5-146,325.5-325.5s-146-325.5-325.5-325.5
	s-325.5,146-325.5,325.5c0,32.1,4.9,63.1,13.6,92.5L1095.8,27.1C1032-52.1,940.1-107.3,835.4-124.2v-184.1
	c147.5-31,258.6-162,258.6-318.5c0-179.5-146-325.5-325.5-325.5s-325.5,146-325.5,325.5c0,154.4,108.2,283.8,252.7,317v186.5
	C498.5-88.7,348,83.4,348,290.4c0,208,151.9,380.7,350.6,414.2v196.9c-146,32.1-255.6,162.3-255.6,317.8
	c0,179.5,146,325.5,325.5,325.5s325.5-146,325.5-325.5c0-155.5-109.7-285.7-255.6-317.8V704.6c100.5-16.9,191.5-69.8,255.9-148.8
	l154,109c-8.5,29.1-13.3,59.8-13.3,91.6c0,179.5,146,325.5,325.5,325.5s325.5-146,325.5-325.5S1740,430.7,1560.5,430.7L1560.5,430.7
	z M1560.5-330.4c87,0,157.8,70.8,157.8,157.8s-70.8,157.8-157.8,157.8s-157.8-70.8-157.8-157.8S1473.4-330.4,1560.5-330.4
	L1560.5-330.4z M610.6-626.8c0-87,70.8-157.8,157.8-157.8s157.8,70.8,157.8,157.8S855.5-469,768.5-469S610.6-539.8,610.6-626.8
	L610.6-626.8z M926.3,1219.3c0,87-70.8,157.8-157.8,157.8s-157.8-70.8-157.8-157.8c0-87,70.8-157.8,157.8-157.8
	S926.3,1132.2,926.3,1219.3z M768.5,510.5c-121.4,0-220.1-98.7-220.1-220.1c0-121.4,98.8-220.1,220.1-220.1
	c121.4,0,220.1,98.8,220.1,220.1C988.6,411.8,889.8,510.5,768.5,510.5z M1560.5,914.1c-87,0-157.8-70.8-157.8-157.8
	s70.8-157.8,157.8-157.8s157.8,70.8,157.8,157.8S1647.5,914.1,1560.5,914.1z"/>
</svg>
