<?xml version="1.0" encoding="utf-8"?>
<!-- Generator: Adobe Illustrator 19.0.1, SVG Export Plug-In . SVG Version: 6.00 Build 0)  -->
<svg version="1.1" id="圖層_1" xmlns="http://www.w3.org/2000/svg" xmlns:xlink="http://www.w3.org/1999/xlink" x="0px" y="0px"
	 viewBox="1227.5 407.4 24.9 24.9" style="enable-background:new 1227.5 407.4 24.9 24.9;" xml:space="preserve">
<style type="text/css">
	.st0{fill:#5DBEBB;}
</style>
<path class="st0" d="M1244.4,421.2c-1,0-1.8,0.4-2.4,1.1l-1.5-1.1c0.2-0.4,0.3-0.9,0.3-1.4c0-0.5-0.1-1-0.2-1.4l1.5-1.1
	c0.6,0.7,1.5,1.1,2.4,1.1c1.8,0,3.3-1.5,3.3-3.3s-1.5-3.3-3.3-3.3c-1.8,0-3.3,1.5-3.3,3.3c0,0.3,0,0.6,0.1,0.9l-1.5,1.1
	c-0.6-0.8-1.6-1.3-2.6-1.5v-1.8c1.5-0.3,2.6-1.6,2.6-3.2c0-1.8-1.5-3.3-3.3-3.3s-3.3,1.5-3.3,3.3c0,1.5,1.1,2.8,2.5,3.2v1.9
	c-2,0.3-3.5,2.1-3.5,4.1c0,2.1,1.5,3.8,3.5,4.1v2c-1.5,0.3-2.6,1.6-2.6,3.2c0,1.8,1.5,3.3,3.3,3.3s3.3-1.5,3.3-3.3
	c0-1.6-1.1-2.9-2.6-3.2v-2c1-0.2,1.9-0.7,2.6-1.5l1.5,1.1c-0.1,0.3-0.1,0.6-0.1,0.9c0,1.8,1.5,3.3,3.3,3.3c1.8,0,3.3-1.5,3.3-3.3
	S1246.2,421.2,1244.4,421.2L1244.4,421.2z M1244.4,413.6c0.9,0,1.6,0.7,1.6,1.6s-0.7,1.6-1.6,1.6c-0.9,0-1.6-0.7-1.6-1.6
	S1243.6,413.6,1244.4,413.6L1244.4,413.6z M1234.9,410.7c0-0.9,0.7-1.6,1.6-1.6c0.9,0,1.6,0.7,1.6,1.6c0,0.9-0.7,1.6-1.6,1.6
	S1234.9,411.5,1234.9,410.7L1234.9,410.7z M1238.1,429.1c0,0.9-0.7,1.6-1.6,1.6s-1.6-0.7-1.6-1.6c0-0.9,0.7-1.6,1.6-1.6
	S1238.1,428.2,1238.1,429.1z M1236.5,422c-1.2,0-2.2-1-2.2-2.2s1-2.2,2.2-2.2c1.2,0,2.2,1,2.2,2.2C1238.7,421,1237.7,422,1236.5,422
	z M1244.4,426.1c-0.9,0-1.6-0.7-1.6-1.6c0-0.9,0.7-1.6,1.6-1.6c0.9,0,1.6,0.7,1.6,1.6C1246,425.4,1245.3,426.1,1244.4,426.1z"/>
</svg>
