<?xml version="1.0" encoding="utf-8"?>
<!-- Generator: Adobe Illustrator 19.0.1, SVG Export Plug-In . SVG Version: 6.00 Build 0)  -->
<svg version="1.1" id="Layer_1" xmlns="http://www.w3.org/2000/svg" xmlns:xlink="http://www.w3.org/1999/xlink" x="0px" y="0px"
	 viewBox="1722.5 -151.5 708.9 904.3" style="enable-background:new 1722.5 -151.5 708.9 904.3;" xml:space="preserve">
<style type="text/css">
	.st0{fill:#5DBEBB;}
	.st1{fill:#37A595;}
	.st2{fill:#19A2A2;}
</style>
<path class="st0" d="M1760.3,189.5c114.1,0,221.9,29.7,315.6,79.7l334.4-401.6h-662.5v796.9v-475H1760.3L1760.3,189.5z"/>
<path class="st0" d="M2075.9,269.2l-328.1,395.3V727h660.9C2371.2,530.1,2246.2,362.9,2075.9,269.2z"/>
<path class="st1" d="M2075.9,269.2l-328.1,395.3V727h117.2l318.7-384.4c0,0-21.9-17.2-51.6-39.1
	C2110.2,287.9,2075.9,269.2,2075.9,269.2z"/>
<path class="st2" d="M1760.3,189.5h-12.5v475l328.1-395.3C1982.1,219.2,1874.3,189.5,1760.3,189.5L1760.3,189.5z"/>
</svg>
