<?xml version="1.0" encoding="utf-8"?>
<!-- Generator: Adobe Illustrator 19.0.1, SVG Export Plug-In . SVG Version: 6.00 Build 0)  -->
<svg version="1.1" id="Capa_1" xmlns="http://www.w3.org/2000/svg" xmlns:xlink="http://www.w3.org/1999/xlink" x="0px" y="0px"
	 viewBox="-158.2 48.5 500 500" style="enable-background:new -158.2 48.5 500 500;" xml:space="preserve">
<style type="text/css">
	.st0{fill:#FFFFFF;}
</style>
<g>
	<g>
		<path class="st0" d="M199,327h-14.3c-2.1,0-3.8,0.7-5.1,2c-1.3,1.3-2,3-2,5.1v71.4c0,9.8-3.5,18.2-10.5,25.2
			c-7,7-15.4,10.5-25.2,10.5H-43.9c-9.8,0-18.2-3.5-25.2-10.5c-7-7-10.5-15.4-10.5-25.2V219.9c0-9.8,3.5-18.2,10.5-25.2
			c7-7,15.4-10.5,25.2-10.5h157.1c2.1,0,3.8-0.7,5.1-2c1.3-1.3,2-3,2-5.1v-14.3c0-2.1-0.7-3.8-2-5.1c-1.3-1.3-3-2-5.1-2H-43.9
			c-17.7,0-32.8,6.3-45.4,18.9c-12.6,12.6-18.9,27.7-18.9,45.4v185.7c0,17.7,6.3,32.9,18.9,45.4c12.6,12.6,27.7,18.9,45.4,18.9
			h185.7c17.7,0,32.8-6.3,45.4-18.9c12.6-12.6,18.9-27.7,18.9-45.4v-71.4c0-2.1-0.7-3.8-2-5.1C202.7,327.7,201,327,199,327z"/>
		<path class="st0" d="M287.6,131.3c-2.8-2.8-6.2-4.2-10-4.2H163.2c-3.9,0-7.2,1.4-10,4.2c-2.8,2.8-4.2,6.2-4.2,10
			c0,3.9,1.4,7.2,4.2,10l39.3,39.3L46.9,336.2c-1.5,1.5-2.2,3.2-2.2,5.1c0,1.9,0.7,3.6,2.2,5.1l25.4,25.4c1.5,1.5,3.2,2.2,5.1,2.2
			c1.9,0,3.6-0.7,5.1-2.2l145.5-145.5l39.3,39.3c2.8,2.8,6.2,4.2,10,4.2s7.2-1.4,10-4.2c2.8-2.8,4.2-6.2,4.2-10V141.3
			C291.8,137.5,290.4,134.1,287.6,131.3z"/>
	</g>
</g>
</svg>
