<?xml version="1.0" encoding="utf-8"?>
<!-- Generator: Adobe Illustrator 19.0.1, SVG Export Plug-In . SVG Version: 6.00 Build 0)  -->
<svg version="1.1" id="Capa_1" xmlns="http://www.w3.org/2000/svg" xmlns:xlink="http://www.w3.org/1999/xlink" x="0px" y="0px"
	 viewBox="-610 48.3 500 500" style="enable-background:new -610 48.3 500 500;" xml:space="preserve">
<style type="text/css">
	.st0{fill:#FFFFFF;}
</style>
<path class="st0" d="M-326.7,98.3c-74.3,0-137.1,17.3-158.6,43.2c-43.6,10.7-68.9,28.7-73.8,46.9c-0.6,1-1,2.1-1,3.3v3.3v76.7v3.3
	v3.3v73.3v3.3v3.3v80c0,1.1,0.3,2.1,0.8,3c7.9,32.6,78.3,57,165.9,57c74.9,0,137.2-17.9,158.6-43.5c42.4-10.3,69.1-27.2,73.9-46.7
	c0.5-0.9,0.8-2,0.8-3.2v-80v-3.3v-76.7v-3.3v-80C-160,130.9-218.4,98.3-326.7,98.3z M-241.3,360.6c-0.3,0.7-0.6,1.3-1,2
	c-0.4,0.8-0.9,1.6-1.5,2.5c-0.4,0.6-0.9,1.2-1.5,1.8c-0.7,0.9-1.5,1.7-2.4,2.6c-0.5,0.5-1.1,1-1.7,1.6c-1.1,1-2.2,1.9-3.5,2.8
	c-0.5,0.4-1.1,0.8-1.7,1.2c-1.5,1-3.1,2.1-4.8,3.1c-0.5,0.3-0.9,0.5-1.4,0.8c-2,1.1-4.1,2.2-6.3,3.3c-0.3,0.1-0.6,0.3-0.9,0.4
	c-2.5,1.2-5.1,2.3-7.9,3.5c-0.1,0-0.2,0.1-0.2,0.1c-15.1,6-34.5,11.1-57.1,14.5c-0.1,0-0.2,0-0.3,0c-4.4,0.6-8.9,1.2-13.5,1.7
	c-0.8,0.1-1.5,0.1-2.3,0.2c-4,0.4-8.1,0.8-12.3,1.1c-1.9,0.1-3.9,0.2-5.9,0.3c-3.2,0.2-6.3,0.4-9.5,0.5c-5.3,0.2-10.7,0.3-16.2,0.3
	s-10.9-0.1-16.2-0.3c-3.2-0.1-6.4-0.3-9.5-0.5c-2-0.1-4-0.2-5.9-0.3c-4.2-0.3-8.3-0.7-12.3-1.1c-0.8-0.1-1.6-0.1-2.3-0.2
	c-4.6-0.5-9.1-1.1-13.5-1.7c-0.1,0-0.2,0-0.3,0c-22.6-3.3-41.9-8.4-57.1-14.5c-0.1,0-0.2-0.1-0.2-0.1c-2.8-1.1-5.4-2.3-7.9-3.5
	c-0.3-0.1-0.6-0.3-0.9-0.4c-2.2-1.1-4.3-2.2-6.3-3.3c-0.5-0.3-1-0.5-1.4-0.8c-1.7-1-3.3-2-4.8-3.1c-0.6-0.4-1.2-0.8-1.7-1.2
	c-1.3-0.9-2.4-1.9-3.5-2.8c-0.6-0.5-1.2-1-1.7-1.6c-0.9-0.9-1.7-1.7-2.4-2.6c-0.5-0.6-1-1.2-1.5-1.8c-0.6-0.8-1.1-1.6-1.5-2.5
	c-0.4-0.7-0.7-1.3-1-2c-0.3-0.8-0.6-1.6-0.8-2.4c-0.2-1.1-0.5-2.1-0.5-3.2c0-0.8,0.1-1.5,0.2-2.3c0.2-1,0.1-2-0.2-3v-49.5
	c0.2,0.2,0.4,0.3,0.6,0.5c1.5,1.3,2.9,2.6,4.6,3.8c25.1,19,75.3,33.8,148.1,33.8c72.5,0,122.6-14.6,147.8-33.5c2-1.5,3.8-3,5.5-4.5
	l0,0v49.5c-0.3,1-0.4,2-0.2,3c0.1,0.7,0.2,1.5,0.2,2.3c0,1.1-0.3,2.2-0.5,3.2C-240.7,359-241,359.8-241.3,360.6z M-542.7,223.6
	c2,1.6,4.2,3.1,6.5,4.6c0.5,0.3,1,0.6,1.5,0.9c2,1.2,4,2.4,6.2,3.6c0.8,0.4,1.6,0.9,2.4,1.3c2.4,1.2,5,2.4,7.7,3.6
	c0.4,0.2,0.8,0.4,1.3,0.6c3.1,1.3,6.4,2.6,9.9,3.8c1,0.3,2,0.7,2.9,1c2.7,0.9,5.6,1.8,8.5,2.7c1.1,0.3,2.1,0.6,3.2,0.9
	c3.9,1.1,7.9,2.1,12.2,3.1c0.6,0.1,1.2,0.2,1.8,0.4c3.7,0.8,7.6,1.6,11.6,2.3c1.3,0.2,2.7,0.5,4.1,0.7c3.8,0.6,7.7,1.2,11.7,1.7
	c1,0.1,2,0.3,3,0.4c5,0.6,10.1,1.1,15.4,1.6c1.3,0.1,2.7,0.2,4,0.3c4.2,0.3,8.5,0.6,12.9,0.8c1.6,0.1,3.2,0.1,4.8,0.2
	c5.8,0.2,11.6,0.3,17.7,0.3c6.1,0,11.9-0.1,17.7-0.3c1.6-0.1,3.2-0.1,4.8-0.2c4.4-0.2,8.7-0.5,12.9-0.8c1.3-0.1,2.7-0.2,4-0.3
	c5.3-0.4,10.4-1,15.4-1.6c1-0.1,2-0.3,3-0.4c4-0.5,7.9-1.1,11.7-1.7c1.4-0.2,2.7-0.5,4.1-0.7c4-0.7,7.8-1.5,11.6-2.3
	c0.6-0.1,1.2-0.2,1.8-0.4c4.2-0.9,8.3-2,12.2-3.1c1.1-0.3,2.1-0.6,3.2-0.9c2.9-0.9,5.8-1.7,8.5-2.7c1-0.3,2-0.7,2.9-1
	c3.5-1.2,6.8-2.5,9.9-3.8c0.4-0.2,0.8-0.4,1.3-0.6c2.7-1.2,5.2-2.4,7.7-3.6c0.8-0.4,1.6-0.9,2.4-1.3c2.2-1.2,4.3-2.4,6.2-3.6
	c0.5-0.3,1.1-0.6,1.5-0.9c2.3-1.5,4.5-3.1,6.5-4.6c0.5-0.4,0.9-0.8,1.4-1.2c0.9-0.7,1.8-1.4,2.6-2.2v49.5c-0.3,1-0.4,2-0.2,3
	c0.1,0.7,0.2,1.5,0.2,2.3c0,1.1-0.3,2.2-0.5,3.2c-0.2,0.8-0.4,1.6-0.8,2.4c-0.3,0.7-0.6,1.3-1,2c-0.4,0.8-0.9,1.6-1.5,2.5
	c-0.4,0.6-0.9,1.2-1.5,1.8c-0.7,0.9-1.5,1.7-2.4,2.6c-0.5,0.5-1.1,1-1.7,1.6c-1.1,1-2.2,1.9-3.5,2.8c-0.5,0.4-1.1,0.8-1.7,1.2
	c-1.5,1-3.1,2.1-4.8,3.1c-0.5,0.3-0.9,0.5-1.4,0.8c-2,1.1-4.1,2.2-6.3,3.3c-0.3,0.1-0.6,0.3-0.9,0.4c-2.5,1.2-5.1,2.3-7.9,3.5
	c-0.1,0-0.2,0.1-0.2,0.1c-15.1,6-34.5,11.1-57.1,14.5c-0.1,0-0.2,0-0.3,0c-4.4,0.6-8.9,1.2-13.5,1.7c-0.8,0.1-1.5,0.1-2.3,0.2
	c-4,0.4-8.1,0.8-12.3,1.1c-1.9,0.1-3.9,0.2-5.9,0.3c-3.2,0.2-6.3,0.4-9.5,0.5c-5.3,0.2-10.7,0.3-16.2,0.3s-10.9-0.1-16.2-0.3
	c-3.2-0.1-6.4-0.3-9.5-0.5c-2-0.1-4-0.2-5.9-0.3c-4.2-0.3-8.3-0.7-12.3-1.1c-0.8-0.1-1.6-0.1-2.3-0.2c-4.6-0.5-9.1-1.1-13.5-1.7
	c-0.1,0-0.2,0-0.3,0c-22.6-3.3-41.9-8.4-57.1-14.5c-0.1,0-0.2-0.1-0.2-0.1c-2.8-1.1-5.4-2.3-7.9-3.5c-0.3-0.1-0.6-0.3-0.9-0.4
	c-2.2-1.1-4.3-2.2-6.3-3.3c-0.5-0.3-1-0.5-1.4-0.8c-1.7-1-3.3-2-4.8-3.1c-0.6-0.4-1.2-0.8-1.7-1.2c-1.3-0.9-2.4-1.9-3.5-2.8
	c-0.6-0.5-1.2-1-1.7-1.6c-0.9-0.9-1.7-1.7-2.4-2.6c-0.5-0.6-1-1.2-1.5-1.8c-0.6-0.8-1.1-1.6-1.5-2.5c-0.4-0.7-0.7-1.3-1-2
	c-0.3-0.8-0.6-1.6-0.8-2.4c-0.2-1.1-0.5-2.1-0.5-3.2c0-0.8,0.1-1.5,0.2-2.3c0.2-1,0.1-2-0.2-3v-49.5c0.8,0.7,1.7,1.4,2.6,2.2
	C-543.6,222.8-543.2,223.2-542.7,223.6z M-226.7,358.9v-0.6v-3.3v-3.3v-58.9c0.3-0.1,0.6-0.2,0.8-0.2c2.7-0.7,5.3-1.5,7.8-2.3
	c0,0,0.1,0,0.1,0c19.7-6.2,34.8-14,44.6-22.8v54.3c0,0.8-0.1,1.5-0.2,2.3c-0.1,0.6-0.3,1.3-0.5,1.9c-0.1,0.2-0.1,0.4-0.2,0.6
	c-0.2,0.7-0.5,1.4-0.9,2.1c0,0.1-0.1,0.2-0.1,0.3c-5.5,10.8-23.1,21.3-48.5,29.2C-224.7,358.3-225.7,358.6-226.7,358.9z
	 M-173.3,187.3v54.4c0,0.8-0.1,1.5-0.2,2.3c-0.1,0.6-0.3,1.3-0.5,1.9c-0.1,0.2-0.1,0.4-0.2,0.6c-0.2,0.7-0.5,1.4-0.9,2.1
	c0,0.1-0.1,0.2-0.1,0.3c-5.5,10.8-23.1,21.3-48.5,29.2c-1,0.3-2,0.6-3,0.9v-0.6v-3.3v-3.3v-58.9c0.6-0.2,1.1-0.3,1.6-0.5
	c1.5-0.4,3-0.9,4.5-1.3c1.3-0.4,2.5-0.8,3.7-1.2c1.5-0.5,3-1,4.4-1.5c1.1-0.4,2.2-0.8,3.3-1.2c1.5-0.6,3-1.2,4.5-1.7
	c0.9-0.4,1.9-0.7,2.7-1.1c1.7-0.7,3.3-1.5,4.9-2.2c0.6-0.3,1.2-0.5,1.8-0.8c2.2-1,4.2-2.1,6.2-3.2c0.2-0.1,0.4-0.2,0.6-0.3
	c1.7-1,3.4-2,5-3c0.6-0.4,1.1-0.7,1.6-1.1c1.2-0.8,2.3-1.6,3.4-2.4c0.6-0.4,1.1-0.9,1.7-1.3c0.9-0.7,1.9-1.5,2.7-2.3
	C-173.7,187.5-173.5,187.4-173.3,187.3z M-326.7,111.6c90.4,0,153.3,26.3,153.3,50c0,0.9-0.1,1.8-0.3,2.7c-0.1,0.3-0.2,0.6-0.2,0.9
	c-0.2,0.6-0.3,1.2-0.5,1.8c-0.1,0.3-0.3,0.7-0.5,1c-0.2,0.5-0.5,1.1-0.8,1.6c-0.2,0.4-0.5,0.7-0.7,1.1c-0.3,0.5-0.7,1-1,1.6
	c-0.3,0.4-0.6,0.7-0.9,1.1c-0.4,0.5-0.8,1-1.3,1.5c-0.3,0.4-0.7,0.7-1.1,1.1c-0.5,0.5-1,1-1.6,1.5c-0.4,0.4-0.8,0.7-1.3,1.1
	c-0.6,0.5-1.2,1-1.8,1.5c-0.5,0.4-1,0.7-1.5,1.1c-0.7,0.5-1.4,1-2.1,1.4c-0.5,0.4-1.1,0.7-1.6,1.1c-0.8,0.5-1.6,1-2.4,1.4
	c-0.6,0.3-1.1,0.7-1.7,1c-0.9,0.5-1.8,1-2.7,1.5c-0.6,0.3-1.2,0.6-1.8,0.9c-1,0.5-2.1,1-3.2,1.5c-0.6,0.3-1.1,0.5-1.7,0.8
	c-1.4,0.6-2.9,1.2-4.4,1.9c-0.3,0.1-0.6,0.2-0.9,0.4c-1.8,0.7-3.7,1.4-5.7,2.1c-0.5,0.2-1.1,0.4-1.7,0.6c-1.4,0.5-2.9,1-4.3,1.5
	c-0.8,0.3-1.6,0.5-2.4,0.7c-1.1,0.3-2.1,0.7-3.2,1v-3.9v-3.3c0-0.8-0.2-1.5-0.4-2.1c-0.1-0.3-0.2-0.5-0.3-0.8c0,0,0-0.1,0-0.1
	c-1.9-7.8-7.5-15.2-16-21.9c0,0-0.1-0.1-0.1-0.1c-1.2-1-2.6-1.9-3.9-2.8c-23.6-16.7-67.2-29.9-128.9-31.9c-5.6-0.2-11.3-0.3-17-0.3
	c-5.7,0-11.4,0.1-17,0.3c-16.7,0.6-31.9,1.9-45.9,4C-430.4,122.4-384.8,111.6-326.7,111.6z M-470,152c1.7-0.3,3.4-0.6,5.1-0.9
	c2.2-0.4,4.4-0.8,6.7-1.2c2-0.3,4-0.6,6-0.9c2.2-0.3,4.5-0.6,6.9-0.9c2-0.2,3.9-0.5,5.9-0.7c4-0.4,8.1-0.8,12.2-1.1
	c1.6-0.1,3.2-0.2,4.8-0.3c3.2-0.2,6.5-0.4,9.8-0.5c1.6-0.1,3.1-0.1,4.7-0.2c4.8-0.1,9.6-0.3,14.6-0.3c5.5,0,10.9,0.1,16.2,0.3
	c3.2,0.1,6.3,0.3,9.4,0.5c2,0.1,4,0.2,6,0.3c4.1,0.3,8.2,0.7,12.1,1.1c0.8,0.1,1.7,0.1,2.5,0.2c4.5,0.5,8.9,1.1,13.2,1.7
	c0.2,0,0.5,0.1,0.7,0.1c22.5,3.3,41.7,8.4,56.8,14.4c0.2,0.1,0.3,0.1,0.5,0.2c2.7,1.1,5.2,2.2,7.7,3.4c0.4,0.2,0.8,0.3,1.1,0.5
	c2.2,1,4.2,2.1,6.1,3.2c0.5,0.3,1.1,0.6,1.6,0.9c1.7,1,3.2,2,4.6,3c0.6,0.4,1.3,0.9,1.9,1.3c1.2,0.9,2.3,1.8,3.4,2.7
	c0.6,0.6,1.3,1.1,1.8,1.7c0.9,0.8,1.6,1.7,2.3,2.5c0.5,0.6,1.1,1.3,1.5,1.9c0.6,0.8,1.1,1.6,1.5,2.4c0.4,0.7,0.7,1.4,1,2
	c0.3,0.8,0.6,1.6,0.8,2.4c0.3,1.1,0.5,2.2,0.5,3.3c0,23.7-63,50-153.3,50s-153.3-26.3-153.3-50C-546.7,178.8-517.3,161.4-470,152z
	 M-393.3,484.9c-86.9,0-149.3-24.7-153.1-47.7c-0.1-0.3-0.1-0.6-0.2-0.9v-56.1c0.2,0.2,0.4,0.3,0.6,0.5c1.5,1.3,2.9,2.6,4.6,3.8
	c25.1,19,75.3,33.8,148.1,33.8c72.5,0,122.6-14.6,147.8-33.5c2-1.5,3.8-3,5.5-4.5l0,0v56.1c-0.1,0.3-0.2,0.6-0.2,0.9
	c-0.2,1.4-0.7,2.7-1.3,4.1c-0.2,0.5-0.6,1.1-0.9,1.6C-254.5,464.1-313.5,484.9-393.3,484.9z M-173.5,403.9
	c-2.1,12.9-22.1,25.9-53.1,35c0-0.2,0-0.4,0-0.6v-65.5c0.3-0.1,0.6-0.2,0.8-0.2c2.7-0.7,5.3-1.5,7.8-2.3c0,0,0.1,0,0.1,0
	c19.7-6.2,34.8-14,44.6-22.8V403C-173.4,403.3-173.5,403.6-173.5,403.9z"/>
</svg>
