<?xml version="1.0" encoding="utf-8"?>
<!-- Generator: Adobe Illustrator 19.0.1, SVG Export Plug-In . SVG Version: 6.00 Build 0)  -->
<svg version="1.1" id="Capa_1" xmlns="http://www.w3.org/2000/svg" xmlns:xlink="http://www.w3.org/1999/xlink" x="0px" y="0px"
	 viewBox="-232.2 48.5 500 500" style="enable-background:new -232.2 48.5 500 500;" xml:space="preserve">
<style type="text/css">
	.st0{fill:#FFFFFF;}
</style>
<g>
	<g>
		<g>
			<path class="st0" d="M-4.9,229c0.7,1.5,1.5,2.9,2.2,4c0.7,1.1,1.8,2.2,2.6,3.3c1.1,1.1,2.2,2.2,3.7,3.3c1.1,0.7,2.6,1.8,4.4,2.2
				c1.5,0.7,2.9,1.1,4.8,1.5s3.3,0.4,4.8,0.4c1.5,0,3.3,0,4.8-0.4c1.5-0.4,2.9-0.7,4-1.5h0.4c1.5-0.7,2.9-1.5,4.4-2.6
				c1.1-0.7,2.2-1.8,3.3-2.9l0.4-0.4c1.1-1.1,1.8-2.2,2.6-3.3c0.7-1.1,1.5-2.2,1.8-3.7c0-0.4,0-0.4,0.4-0.7c0.7-1.5,1.1-3.3,1.5-4.8
				c0.4-1.5,0.4-3.3,0.4-4.8s0-3.3-0.4-4.8c-0.4-1.5-0.7-2.9-1.5-4.8c-1.1-2.6-2.6-4.8-4.4-6.6c-0.4-0.4-0.4-0.4-0.7-0.7
				c-1.1-1.1-2.2-1.8-3.7-2.9c-1.5-0.7-2.6-1.5-4-2.2c-1.5-0.7-2.9-1.1-4.4-1.5c-1.8-0.4-3.3-0.4-4.8-0.4c-1.5,0-3.3,0-4.8,0.4
				c-1.5,0.4-2.9,0.7-4.4,1.5H7.9c-1.5,0.7-2.9,1.5-4,2.2c-1.5,1.1-2.6,1.8-3.7,2.9c-1.1,1.1-2.2,2.2-2.9,3.3s-1.5,2.6-2.2,4
				c-0.7,1.5-1.1,2.9-1.5,4.4c-0.4,1.8-0.4,3.3-0.4,4.8c0,1.5,0,3.3,0.4,4.8C-6,226.1-5.2,227.5-4.9,229z"/>
			<path class="st0" d="M46,362.8h-8.4v-89.6c0-5.1-4-9.5-9.5-9.5h-38.4c-5.1,0-9.5,4-9.5,9.5V293c0,5.1,4,9.5,9.5,9.5h7.7v60.7
				h-7.7c-5.1,0-9.5,4-9.5,9.5v19.7c0,5.1,4,9.5,9.5,9.5H46c5.1,0,9.5-4,9.5-9.5v-19.7C55.5,367.2,51.1,362.8,46,362.8z"/>
			<path class="st0" d="M17.8,98.5c-110.4,0-200,89.6-200,200s89.6,200,200,200s200-89.6,200-200S128.2,98.5,17.8,98.5z M17.8,472.2
				c-95.8,0-173.7-77.9-173.7-173.7S-78,124.8,17.8,124.8s173.7,77.9,173.7,173.7S113.6,472.2,17.8,472.2z"/>
		</g>
	</g>
</g>
</svg>
