<?xml version="1.0" encoding="utf-8"?>
<!-- Generator: Adobe Illustrator 19.0.1, SVG Export Plug-In . SVG Version: 6.00 Build 0)  -->
<svg version="1.1" id="Capa_1" xmlns="http://www.w3.org/2000/svg" xmlns:xlink="http://www.w3.org/1999/xlink" x="0px" y="0px"
	 viewBox="-180.3 47.6 500 500" style="enable-background:new -180.3 47.6 500 500;" xml:space="preserve">
<style type="text/css">
	.st0{fill:#FFFFFF;}
</style>
<g>
	<g>
		<path class="st0" d="M-130.3,455.4c0,23.3,19,42.2,42.2,42.2h315.7c23.3,0,42.2-19,42.2-42.2V139.8c0-23.3-19-42.2-42.2-42.2
			H-88.1c-23.3,0-42.2,19-42.2,42.2V455.4z M227.5,477.6H-88.1c-12.2,0-22.1-10-22.1-22.1v-52.7l75.8-75.8l64.8,64.8
			c3.9,3.9,10.2,3.9,14.1,0l117-117l88.1,88.1v92.7C249.7,467.6,239.7,477.6,227.5,477.6z M-88.1,117.6h315.7
			c12.2,0,22.1,10,22.1,22.1v194.6l-81.1-81c-3.9-3.9-10.2-3.9-14.1,0l-117,117l-64.8-64.8c-3.9-3.9-10.2-3.9-14.1,0l-68.7,68.7
			V139.8C-110.3,127.6-100.3,117.6-88.1,117.6z"/>
		<path class="st0" d="M-6.3,257.9c28.1,0,50.9-22.9,50.9-50.9S21.7,156-6.3,156s-50.9,22.9-50.9,50.9S-34.4,257.9-6.3,257.9z
			 M-6.3,176c17.1,0,30.9,13.9,30.9,30.9s-13.9,30.9-30.9,30.9s-30.9-13.9-30.9-30.9S-23.4,176-6.3,176z"/>
	</g>
</g>
</svg>
