<?xml version="1.0" encoding="utf-8"?>
<!-- Generator: Adobe Illustrator 19.0.1, SVG Export Plug-In . SVG Version: 6.00 Build 0)  -->
<svg version="1.1" id="圖層_1" xmlns="http://www.w3.org/2000/svg" xmlns:xlink="http://www.w3.org/1999/xlink" x="0px" y="0px"
	 viewBox="-158 47.8 500 500" style="enable-background:new -158 47.8 500 500;" xml:space="preserve">
<style type="text/css">
	.st0{fill:#FFFFFF;}
</style>
<g>
	<path class="st0" d="M251.5,208.4c-42.6-42.6-99.2-66-159.5-66s-116.9,23.5-159.5,66c-42.6,42.6-66,99.2-66,159.5
		c0,16.6,1.8,33.1,5.4,49.1c2.1,9.2,4.7,18.5,7.9,27.4c2,5.4,7.1,8.8,12.5,8.8c1.5,0,3-0.3,4.5-0.8c6.9-2.5,10.5-10.1,8-17.1
		c-2.8-7.9-5.2-16-7-24.1c-2.2-9.8-3.6-19.9-4.3-30h41c7.4,0,13.3-6,13.3-13.3s-6-13.3-13.3-13.3h-41c1.8-26.5,8.7-51.6,19.9-74.3
		l35.5,20.5c2.1,1.2,4.4,1.8,6.7,1.8c4.6,0,9.1-2.4,11.6-6.7c3.7-6.4,1.5-14.5-4.9-18.2l-35.5-20.5c14.4-21.5,32.9-39.9,54.4-54.4
		l20.5,35.5c2.5,4.3,7,6.7,11.6,6.7c2.3,0,4.6-0.6,6.7-1.8c6.4-3.7,8.6-11.8,4.9-18.2L4.4,189.4c22.7-11.2,47.8-18.2,74.3-19.9v41
		c0,7.4,6,13.3,13.3,13.3c7.4,0,13.3-6,13.3-13.3v-41c26.5,1.8,51.6,8.7,74.3,19.9l-20.5,35.5c-3.7,6.4-1.5,14.5,4.9,18.2
		c2.1,1.2,4.4,1.8,6.7,1.8c4.6,0,9.1-2.4,11.6-6.7l20.5-35.5c21.5,14.4,39.9,32.9,54.4,54.4l-35.5,20.5c-6.4,3.7-8.6,11.8-4.9,18.2
		c2.5,4.3,7,6.7,11.6,6.7c2.3,0,4.6-0.6,6.7-1.8l35.5-20.5c11.2,22.7,18.2,47.8,19.9,74.3h-41c-7.4,0-13.3,6-13.3,13.3
		s6,13.3,13.3,13.3h41c-0.6,9.6-1.9,19.1-3.9,28.4c-1.6,7.7-3.8,15.4-6.3,22.8c-2.4,7,1.3,14.6,8.3,16.9c7,2.4,14.6-1.3,16.9-8.3
		c2.9-8.5,5.3-17.2,7.2-25.9c3.3-15.5,5-31.4,5-47.4C317.5,307.6,294,251,251.5,208.4z"/>
	<path class="st0" d="M166.8,274L110,335.3c-5.5-3.1-11.8-4.9-18.5-4.9c-20.7,0-37.5,16.8-37.5,37.5c0,20.7,16.8,37.5,37.5,37.5
		c20.7,0,37.5-16.8,37.5-37.5c0-4.1-0.7-8.1-1.9-11.8l59.3-63.9c5-5.4,4.7-13.8-0.7-18.8S171.8,268.6,166.8,274z M91.5,378.7
		c-5.9,0-10.8-4.8-10.8-10.8c0-5.9,4.8-10.8,10.8-10.8s10.8,4.8,10.8,10.8C102.3,373.8,97.4,378.7,91.5,378.7z"/>
</g>
</svg>
