<?xml version="1.0" encoding="utf-8"?>
<!-- Generator: Adobe Illustrator 19.0.1, SVG Export Plug-In . SVG Version: 6.00 Build 0)  -->
<svg version="1.1" id="圖層_1" xmlns="http://www.w3.org/2000/svg" xmlns:xlink="http://www.w3.org/1999/xlink" x="0px" y="0px"
	 viewBox="867 47.3 500 500" style="enable-background:new 867 47.3 500 500;" xml:space="preserve">
<style type="text/css">
	.st0{fill:#FFFFFF;}
</style>
<path class="st0" d="M1188,317.8c-15.6,0-29.5,6.9-39.1,17.8l-24.5-17.3c2.6-7.2,4.1-14.9,4.1-22.9c0-7.9-1.4-15.5-4-22.5l24.4-17.2
	c9.6,10.8,23.5,17.7,39,17.7c28.8,0,52.1-23.4,52.1-52.1S1216.8,169,1188,169c-28.8,0-52.1,23.4-52.1,52.1c0,5.1,0.8,10.1,2.2,14.8
	l-24.5,17.2c-10.2-12.7-24.9-21.5-41.7-24.2v-29.5c23.6-5,41.4-25.9,41.4-51c0-28.8-23.4-52.1-52.1-52.1
	c-28.8,0-52.1,23.4-52.1,52.1c0,24.7,17.3,45.5,40.5,50.8V229c-31.6,5.5-55.7,33.1-55.7,66.3c0,33.3,24.3,61,56.2,66.3v31.5
	c-23.4,5.1-41,26-41,50.9c0,28.8,23.4,52.1,52.1,52.1c28.8,0,52.1-23.4,52.1-52.1c0-24.9-17.6-45.8-41-50.9v-31.5
	c16.1-2.7,30.7-11.2,41-23.8l24.7,17.5c-1.4,4.7-2.1,9.6-2.1,14.7c0,28.8,23.4,52.1,52.1,52.1c28.8,0,52.1-23.4,52.1-52.1
	S1216.8,317.8,1188,317.8L1188,317.8z M1188,195.8c13.9,0,25.3,11.3,25.3,25.3c0,13.9-11.3,25.3-25.3,25.3s-25.3-11.3-25.3-25.3
	C1162.8,207.2,1174.1,195.8,1188,195.8L1188,195.8z M1035.9,148.4c0-13.9,11.3-25.3,25.3-25.3s25.3,11.3,25.3,25.3
	s-11.3,25.3-25.3,25.3S1035.9,162.3,1035.9,148.4L1035.9,148.4z M1086.5,444.1c0,13.9-11.3,25.3-25.3,25.3s-25.3-11.3-25.3-25.3
	c0-13.9,11.3-25.3,25.3-25.3S1086.5,430.1,1086.5,444.1z M1061.2,330.5c-19.4,0-35.3-15.8-35.3-35.3c0-19.4,15.8-35.3,35.3-35.3
	c19.4,0,35.3,15.8,35.3,35.3C1096.4,314.7,1080.6,330.5,1061.2,330.5z M1188,395.2c-13.9,0-25.3-11.3-25.3-25.3s11.3-25.3,25.3-25.3
	s25.3,11.3,25.3,25.3S1202,395.2,1188,395.2z"/>
</svg>
