<?xml version="1.0" encoding="utf-8"?>
<!-- Generator: Adobe Illustrator 19.0.1, SVG Export Plug-In . SVG Version: 6.00 Build 0)  -->
<svg version="1.1" id="Capa_1" xmlns="http://www.w3.org/2000/svg" xmlns:xlink="http://www.w3.org/1999/xlink" x="0px" y="0px"
	 viewBox="-196.1 48.4 500 500" style="enable-background:new -196.1 48.4 500 500;" xml:space="preserve">
<style type="text/css">
	.st0{fill:#FFFFFF;}
</style>
<g>
	<path class="st0" d="M253.7,183.6c0-1.7-0.4-3.3-1.1-4.9c-1.5-3.1-4.3-5.2-7.4-5.9L58.4,82.2c-3-1.5-6.6-1.5-9.6,0l-188.6,91.4
		c-3.7,1.7-6.1,5.4-6.2,9.5v0.1c0,0.1,0,0.2,0,0.4v229.4c0,4.2,2.4,8.1,6.2,9.9l188.6,91.4c0.1,0,0.1,0,0.2,0.1
		c0.3,0.1,0.6,0.2,0.8,0.4c0.1,0,0.2,0.1,0.4,0.1c0.3,0.1,0.6,0.2,0.8,0.3c0.1,0,0.2,0.1,0.3,0.1c0.3,0.1,0.6,0.1,0.9,0.2
		c0.1,0,0.2,0,0.3,0c0.4,0,0.8,0.1,1.2,0.1c0.4,0,0.8,0,1.2-0.1c0.1,0,0.2,0,0.3,0c0.3,0,0.6-0.1,0.9-0.2c0.1,0,0.2-0.1,0.3-0.1
		c0.3-0.1,0.6-0.2,0.8-0.3c0.1,0,0.2-0.1,0.4-0.1c0.3-0.1,0.6-0.2,0.8-0.4c0.1,0,0.1,0,0.2-0.1l189.2-91.7c3.8-1.8,6.2-5.7,6.2-9.9
		v-229C253.7,183.8,253.7,183.7,253.7,183.6z M53.5,104.3l163.6,79.3l-60.2,29.3L-6.7,133.6L53.5,104.3z M53.5,263l-163.6-79.3
		l78.1-37.9l163.6,79.3L53.5,263z M-124.1,201.4l166.6,80.8v204.8l-166.6-80.8V201.4z M64.5,486.9V282.1l78.2-38v53.6
		c0,6.1,5,11,11,11s11-5,11-11v-64.3l66.9-32.5v204.8L64.5,486.9z"/>
</g>
</svg>
