<?xml version="1.0" encoding="utf-8"?>
<!-- Generator: Adobe Illustrator 19.0.1, SVG Export Plug-In . SVG Version: 6.00 Build 0)  -->
<svg version="1.1" id="圖層_1" xmlns="http://www.w3.org/2000/svg" xmlns:xlink="http://www.w3.org/1999/xlink" x="0px" y="0px"
	 viewBox="-297.9 408.9 24.9 25" style="enable-background:new -297.9 408.9 24.9 25;" xml:space="preserve">
<style type="text/css">
	.st0{fill:#19A2A2;}
	.st1{fill:#5DBEBB;}
	.st2{fill:#CEEBEA;}
</style>
<g transform="matrix(1.2754196 0 0 1.2754196 -16.030009 -21.83192)">
	<path class="st0" d="M-211.2,337.9c0.2,0.3,0.4,0.7,0.5,1c0.1,0.2,0.2,0.4,0.4,0.5c0.4,0.4,0.9,0.9,1.2,1.4
		c0.9,1.2,1.5,2.5,1.9,3.9c0.3,0.9,0.4,1.7,0.4,2.6c0,2.7-0.9,4.9-2.7,6.8c-0.3,0.3-0.6,0.6-1,0.8c-0.2,0-0.3-0.2-0.4-0.3
		c-0.2-0.2-0.2-0.5-0.3-0.8c-0.1-0.3-0.1-0.6-0.1-1c0,0,0-0.1,0-0.2C-211.1,352.8-211.3,338-211.2,337.9z"/>
	<path class="st1" d="M-211.2,337.9L-211.2,337.9c-0.1,0.2-0.2,0.4-0.3,0.6c-0.1,0.2-0.3,0.3-0.5,0.5c-0.9,0.8-1.7,1.8-2.3,2.9
		c-0.8,1.5-1.2,3.1-1.3,4.8c0,0.6,0.2,2.8,0.4,3.4c0.5,1.6,1.4,3,2.7,4.2c0.3,0.3,0.6,0.5,0.9,0.8c0.1,0,0.1-0.1,0.1-0.2
		c0-0.2,0.1-0.3,0.1-0.4c0.1-0.5,0.2-1.1,0.2-1.6C-211.1,352.9-211.1,338-211.2,337.9L-211.2,337.9z"/>
	<path class="st2" d="M-210.7,355.6c0-0.2,0.2-0.4,0.3-0.7c-0.1,0-0.2-0.2-0.3-0.3c-0.1-0.1-0.1-0.2-0.2-0.4
		c-0.2-0.4-0.2-0.9-0.2-1.4c0,0,0-0.1,0-0.2c0-0.1,0-0.1,0-0.2c0,0-0.1,0.4-0.1,0.5c0,0.5-0.1,1-0.2,1.4c0,0.2,0,0.4-0.2,0.5
		c0,0,0,0,0,0.1c0.2,0.5,0.2,1.1,0.3,1.7v0.2c0,0.3,0,0.2,0.2,0.3c0.1,0,0.2,0,0.3,0.1c0.1,0,0.1,0,0.1-0.1s0-0.2,0-0.4
		c0-0.3,0-0.7,0-1C-210.7,356-210.7,355.8-210.7,355.6z"/>
</g>
</svg>
